<svg width="24" height="24" viewBox="0 0 24 24" fill="none" xmlns="http://www.w3.org/2000/svg">
<g id="01) Icons/Filled/arrow-circle-right-fill">
<path id="&#240;&#159;&#142;&#168; Icon &#208;&#161;olor" fill-rule="evenodd" clip-rule="evenodd" d="M13.8613 8.3096L16.7233 11.3096C16.7663 11.3546 16.7873 11.4106 16.8203 11.4606C16.8563 11.5146 16.8993 11.5626 16.9243 11.6226C16.9733 11.7436 17.0003 11.8716 17.0003 11.9996C17.0003 12.1306 16.9733 12.2606 16.9233 12.3826C16.8723 12.5046 16.7993 12.6156 16.7063 12.7076L13.7073 15.7066C13.3163 16.0976 12.6833 16.0976 12.2933 15.7066C11.9023 15.3166 11.9023 14.6836 12.2933 14.2926L13.5863 12.9996H8.0003C7.4473 12.9996 7.0003 12.5526 7.0003 11.9996C7.0003 11.4476 7.4473 10.9996 8.0003 10.9996H13.6633L12.4143 9.6906C12.0333 9.2906 12.0473 8.6586 12.4473 8.2766C12.8473 7.8946 13.4803 7.9106 13.8613 8.3096ZM2.0003 11.9996C2.0003 17.5146 6.4863 21.9996 12.0003 21.9996C17.5143 21.9996 22.0003 17.5146 22.0003 11.9996C22.0003 6.4856 17.5143 1.9996 12.0003 1.9996C6.4863 1.9996 2.0003 6.4856 2.0003 11.9996Z" fill="#18203A"/>
<mask id="mask0" mask-type="alpha" maskUnits="userSpaceOnUse" x="2" y="1" width="21" height="21">
<path id="&#240;&#159;&#142;&#168; Icon &#208;&#161;olor_2" fill-rule="evenodd" clip-rule="evenodd" d="M13.8613 8.3096L16.7233 11.3096C16.7663 11.3546 16.7873 11.4106 16.8203 11.4606C16.8563 11.5146 16.8993 11.5626 16.9243 11.6226C16.9733 11.7436 17.0003 11.8716 17.0003 11.9996C17.0003 12.1306 16.9733 12.2606 16.9233 12.3826C16.8723 12.5046 16.7993 12.6156 16.7063 12.7076L13.7073 15.7066C13.3163 16.0976 12.6833 16.0976 12.2933 15.7066C11.9023 15.3166 11.9023 14.6836 12.2933 14.2926L13.5863 12.9996H8.0003C7.4473 12.9996 7.0003 12.5526 7.0003 11.9996C7.0003 11.4476 7.4473 10.9996 8.0003 10.9996H13.6633L12.4143 9.6906C12.0333 9.2906 12.0473 8.6586 12.4473 8.2766C12.8473 7.8946 13.4803 7.9106 13.8613 8.3096ZM2.0003 11.9996C2.0003 17.5146 6.4863 21.9996 12.0003 21.9996C17.5143 21.9996 22.0003 17.5146 22.0003 11.9996C22.0003 6.4856 17.5143 1.9996 12.0003 1.9996C6.4863 1.9996 2.0003 6.4856 2.0003 11.9996Z" fill="white"/>
</mask>
<g mask="url(#mask0)">
</g>
</g>
</svg>
