<svg width="24" height="24" viewBox="0 0 24 24" fill="none" xmlns="http://www.w3.org/2000/svg">
<g id="01) Icons/Filled/arrow-choose">
<path id="&#240;&#159;&#142;&#168; Icon &#208;&#161;olor 2" fill-rule="evenodd" clip-rule="evenodd" d="M8.56971 10.875H15.9665C16.5573 10.875 17.0901 10.5221 17.3579 9.95413C17.6616 9.31067 17.573 8.54957 17.1305 8.0132L13.4321 3.5379C12.8422 2.8207 11.694 2.8207 11.1041 3.5379L7.4048 8.01408C6.96324 8.54957 6.87545 9.31067 7.17831 9.95413C7.44605 10.5221 7.97891 10.875 8.56971 10.875ZM8.56971 13.125H15.9665C16.5573 13.125 17.0901 13.4779 17.3579 14.0459C17.6616 14.6893 17.573 15.4504 17.1305 15.9868L13.4321 20.4621C12.8422 21.1793 11.694 21.1793 11.1041 20.4621L7.4048 15.9859C6.96324 15.4504 6.87545 14.6893 7.17831 14.0459C7.44605 13.4779 7.97891 13.125 8.56971 13.125Z" fill="#18203A"/>
<mask id="mask0" mask-type="alpha" maskUnits="userSpaceOnUse" x="7" y="3" width="11" height="18">
<path id="&#240;&#159;&#142;&#168; Icon &#208;&#161;olor 2_2" fill-rule="evenodd" clip-rule="evenodd" d="M8.56971 10.875H15.9665C16.5573 10.875 17.0901 10.5221 17.3579 9.95413C17.6616 9.31067 17.573 8.54957 17.1305 8.0132L13.4321 3.5379C12.8422 2.8207 11.694 2.8207 11.1041 3.5379L7.4048 8.01408C6.96324 8.54957 6.87545 9.31067 7.17831 9.95413C7.44605 10.5221 7.97891 10.875 8.56971 10.875ZM8.56971 13.125H15.9665C16.5573 13.125 17.0901 13.4779 17.3579 14.0459C17.6616 14.6893 17.573 15.4504 17.1305 15.9868L13.4321 20.4621C12.8422 21.1793 11.694 21.1793 11.1041 20.4621L7.4048 15.9859C6.96324 15.4504 6.87545 14.6893 7.17831 14.0459C7.44605 13.4779 7.97891 13.125 8.56971 13.125Z" fill="white"/>
</mask>
<g mask="url(#mask0)">
</g>
</g>
</svg>
