<svg width="24" height="24" viewBox="0 0 24 24" fill="none" xmlns="http://www.w3.org/2000/svg">
<g id="01) Icons/Filled/award-fill">
<path id="&#240;&#159;&#142;&#168; Icon &#208;&#161;olor" fill-rule="evenodd" clip-rule="evenodd" d="M12 3.99988C14.206 3.99988 16 5.79388 16 7.99988C16 10.2059 14.206 11.9999 12 11.9999C9.794 11.9999 8 10.2059 8 7.99988C8 5.79388 9.794 3.99988 12 3.99988ZM18.969 20.7509L16.66 11.7719C17.496 10.7399 18 9.42888 18 7.99988C18 4.69088 15.309 1.99988 12 1.99988C8.691 1.99988 6 4.69088 6 7.99988C6 9.42888 6.504 10.7399 7.34 11.7719L5.031 20.7509C4.931 21.1429 5.075 21.5559 5.398 21.7989C5.721 22.0419 6.158 22.0639 6.506 21.8619L11.836 18.7329L17.516 21.8749C17.667 21.9589 17.834 21.9999 18 21.9999C18.217 21.9999 18.433 21.9299 18.612 21.7909C18.928 21.5469 19.068 21.1379 18.969 20.7509Z" fill="#18203A"/>
<mask id="mask0" mask-type="alpha" maskUnits="userSpaceOnUse" x="4" y="1" width="16" height="21">
<path id="&#240;&#159;&#142;&#168; Icon &#208;&#161;olor_2" fill-rule="evenodd" clip-rule="evenodd" d="M12 3.99988C14.206 3.99988 16 5.79388 16 7.99988C16 10.2059 14.206 11.9999 12 11.9999C9.794 11.9999 8 10.2059 8 7.99988C8 5.79388 9.794 3.99988 12 3.99988ZM18.969 20.7509L16.66 11.7719C17.496 10.7399 18 9.42888 18 7.99988C18 4.69088 15.309 1.99988 12 1.99988C8.691 1.99988 6 4.69088 6 7.99988C6 9.42888 6.504 10.7399 7.34 11.7719L5.031 20.7509C4.931 21.1429 5.075 21.5559 5.398 21.7989C5.721 22.0419 6.158 22.0639 6.506 21.8619L11.836 18.7329L17.516 21.8749C17.667 21.9589 17.834 21.9999 18 21.9999C18.217 21.9999 18.433 21.9299 18.612 21.7909C18.928 21.5469 19.068 21.1379 18.969 20.7509Z" fill="white"/>
</mask>
<g mask="url(#mask0)">
</g>
</g>
</svg>
