<svg width="24" height="24" viewBox="0 0 24 24" fill="none" xmlns="http://www.w3.org/2000/svg">
<g id="01) Icons/Filled/bell-off-fill">
<path id="&#240;&#159;&#142;&#168; Icon &#208;&#161;olor" fill-rule="evenodd" clip-rule="evenodd" d="M20.7074 20.7061C20.5124 20.9011 20.2564 20.9991 20.0004 20.9991C19.7444 20.9991 19.4884 20.9011 19.2934 20.7061L16.5864 17.9991L16.0004 17.4131L14.6554 16.0681L14.5864 15.9991L7.2834 8.6961L5.5314 6.9451L3.2934 4.7061C2.9024 4.3151 2.9024 3.6831 3.2934 3.2921C3.6844 2.9011 4.3164 2.9011 4.7074 3.2921L6.4204 5.0051L7.8864 6.4701L17.4144 15.9991L19.4074 17.9921L20.7074 19.2921C21.0984 19.6831 21.0984 20.3151 20.7074 20.7061ZM7.0354 4.2061C7.2074 4.0171 7.3894 3.8361 7.5834 3.6651C9.0384 2.3901 10.9784 1.8031 12.8994 2.0591C16.2184 2.4981 18.7204 5.4551 18.7204 8.9351V13.4031L20.5204 15.2061C20.9894 15.6761 21.1284 16.3761 20.8734 16.9901C20.7724 17.2321 20.6094 17.4271 20.4204 17.5901L20.1144 17.2851L18.1214 15.2921L8.5934 5.7631L7.1274 4.2981L7.0354 4.2061ZM14.0004 18.3401C14.0004 19.2391 13.0844 19.9991 12.0004 19.9991C10.9164 19.9991 10.0004 19.2391 10.0004 18.3401V17.9991H14.0004V18.3401ZM15.8794 18.7061L15.2934 18.1201L13.9484 16.7761L13.8794 16.7061L6.5764 9.4041L5.3114 8.1391C5.2954 8.3341 5.2804 8.5291 5.2804 8.7261L5.2794 13.4031L3.4784 15.2071C3.0104 15.6771 2.8714 16.3761 3.1254 16.9891C3.3804 17.6021 3.9734 17.9991 4.6374 17.9991H8.0004V18.3401C8.0004 20.3581 9.7944 21.9991 12.0004 21.9991C14.0424 21.9991 15.7124 20.5881 15.9514 18.7791L15.8794 18.7061Z" fill="#18203A"/>
</g>
</svg>
