<svg width="24" height="24" viewBox="0 0 24 24" fill="none" xmlns="http://www.w3.org/2000/svg">
<g id="01) Icons/Filled/book-open-fill">
<path id="&#240;&#159;&#142;&#168; Icon &#208;&#161;olor" fill-rule="evenodd" clip-rule="evenodd" d="M19.9386 4.11088C20.3196 4.01288 20.7106 4.09788 21.0176 4.33588C21.3246 4.57488 21.4996 4.93488 21.4996 5.32188V17.0079C21.4996 17.5789 21.1146 18.0769 20.5616 18.2189L12.9996 20.1599V5.89388L19.9386 4.11088ZM4.058 4.11058L11 5.89358V20.1606L3.438 18.2186C2.886 18.0776 2.5 17.5796 2.5 17.0076V5.32258C2.5 4.93458 2.676 4.57558 2.982 4.33558C3.288 4.09858 3.681 4.01558 4.058 4.11058Z" fill="#18203A"/>
<mask id="mask0" mask-type="alpha" maskUnits="userSpaceOnUse" x="2" y="4" width="20" height="17">
<path id="&#240;&#159;&#142;&#168; Icon &#208;&#161;olor_2" fill-rule="evenodd" clip-rule="evenodd" d="M19.9386 4.11088C20.3196 4.01288 20.7106 4.09788 21.0176 4.33588C21.3246 4.57488 21.4996 4.93488 21.4996 5.32188V17.0079C21.4996 17.5789 21.1146 18.0769 20.5616 18.2189L12.9996 20.1599V5.89388L19.9386 4.11088ZM4.058 4.11058L11 5.89358V20.1606L3.438 18.2186C2.886 18.0776 2.5 17.5796 2.5 17.0076V5.32258C2.5 4.93458 2.676 4.57558 2.982 4.33558C3.288 4.09858 3.681 4.01558 4.058 4.11058Z" fill="white"/>
</mask>
<g mask="url(#mask0)">
</g>
</g>
</svg>
