<svg width="24" height="24" viewBox="0 0 24 24" fill="none" xmlns="http://www.w3.org/2000/svg">
<g id="01) Icons/Filled/cloud-download-fill">
<path id="&#240;&#159;&#142;&#168; Icon &#208;&#161;olor" fill-rule="evenodd" clip-rule="evenodd" d="M21.846 10.8273C21.8673 10.8953 21.8886 10.9634 21.9028 11.0342C21.9648 11.3472 21.9998 11.6692 21.9998 12.0002C21.9998 12.3082 21.9638 12.6112 21.9078 12.9102C21.8954 12.9783 21.8788 13.0437 21.8621 13.1091C21.8545 13.1387 21.847 13.1683 21.8398 13.1982C21.7898 13.3972 21.7308 13.5922 21.6578 13.7832C21.6198 13.8822 21.5808 13.9792 21.5368 14.0752C21.4498 14.2652 21.3488 14.4472 21.2378 14.6262C21.2206 14.6539 21.2041 14.6821 21.1877 14.7103C21.1604 14.7572 21.1331 14.8042 21.1018 14.8492C21.0927 14.8622 21.0849 14.8756 21.0772 14.8889C21.0689 14.9034 21.0607 14.9177 21.0508 14.9312C21.0431 14.9422 21.0323 14.9493 21.0217 14.9563C21.0131 14.9619 21.0045 14.9676 20.9978 14.9752C20.0858 16.1972 18.6418 17.0002 16.9998 17.0002H16.9878C16.9638 16.5342 16.7868 16.0752 16.4388 15.7152C16.0648 15.3262 15.5398 15.1032 14.9998 15.1032C14.6438 15.1032 14.3008 15.1962 13.9998 15.3712V12.0002C13.9998 10.8972 13.1028 10.0002 11.9998 10.0002C10.8978 10.0002 9.9998 10.8972 9.9998 12.0002V15.2662C9.6988 15.0932 9.3568 15.0002 8.9998 15.0002C8.4658 15.0002 7.9638 15.2082 7.5858 15.5862C7.1958 15.9752 7.0008 16.4882 7.0008 17.0002H6.9998C5.3578 17.0002 3.9138 16.1972 3.0028 14.9752C2.99579 14.9677 2.98725 14.9622 2.97868 14.9567C2.96769 14.9496 2.95667 14.9424 2.9488 14.9312C2.93823 14.9167 2.92951 14.9013 2.92075 14.8858C2.91378 14.8735 2.90678 14.8612 2.8988 14.8492C2.86688 14.8032 2.83863 14.7552 2.81041 14.7073C2.79442 14.6801 2.77844 14.6529 2.7618 14.6262C2.6518 14.4472 2.5498 14.2652 2.4628 14.0752C2.42022 13.9823 2.38325 13.8884 2.34556 13.7927L2.3418 13.7832C2.2698 13.5922 2.2098 13.3972 2.1608 13.1982C2.15448 13.1729 2.14794 13.1478 2.14142 13.1227C2.12319 13.0527 2.10506 12.9831 2.0918 12.9102C2.0368 12.6112 1.9998 12.3082 1.9998 12.0002C1.9998 11.6692 2.0358 11.3472 2.0968 11.0342C2.11138 10.9613 2.13358 10.8913 2.15578 10.8212C2.16861 10.7807 2.18144 10.7402 2.1928 10.6992C2.19698 10.6838 2.20115 10.6685 2.20532 10.6531C2.25299 10.4774 2.30067 10.3016 2.3678 10.1352C2.40402 10.0446 2.44849 9.9599 2.4931 9.87491C2.51253 9.83788 2.53199 9.80081 2.5508 9.76318C2.5572 9.75047 2.56358 9.73777 2.56995 9.72508C2.64023 9.58514 2.70945 9.4473 2.7938 9.31618C2.85757 9.21528 2.92981 9.1222 3.00211 9.02904C3.01938 9.00679 3.03665 8.98454 3.0538 8.96218L3.05735 8.95763C3.15414 8.83317 3.25012 8.70977 3.3578 8.59418C3.45428 8.49014 3.55791 8.39683 3.66278 8.30241C3.66878 8.29701 3.67479 8.2916 3.6808 8.28618C3.7988 8.18018 3.9188 8.07818 4.0468 7.98418C4.1658 7.89618 4.2878 7.81618 4.4148 7.74018C4.5548 7.65418 4.6978 7.57718 4.8458 7.50618C4.9758 7.44318 5.1058 7.38618 5.2418 7.33518C5.4038 7.27318 5.5708 7.22418 5.7408 7.18018C5.8758 7.14418 6.0078 7.10918 6.1478 7.08618C6.17422 7.08134 6.19987 7.07436 6.22551 7.06739C6.25809 7.05852 6.29067 7.04966 6.3248 7.04518C7.1458 4.66118 9.4198 3.00018 11.9998 3.00018C14.5808 3.00018 16.8548 4.66118 17.6748 7.04518C17.709 7.04967 17.742 7.05856 17.7749 7.06744C17.8007 7.0744 17.8264 7.08135 17.8528 7.08618C17.9918 7.10918 18.1248 7.14418 18.2588 7.18018C18.4288 7.22418 18.5958 7.27318 18.7578 7.33518C18.8938 7.38618 19.0248 7.44318 19.1538 7.50618C19.3018 7.57718 19.4448 7.65418 19.5848 7.74018C19.7118 7.81618 19.8348 7.89618 19.9538 7.98418C20.0808 8.07818 20.2008 8.18018 20.3188 8.28618C20.4308 8.38618 20.5398 8.48418 20.6428 8.59418C20.7518 8.71118 20.8488 8.83618 20.9458 8.96218C20.9585 8.97854 20.9712 8.99483 20.9839 9.0111C21.0612 9.11028 21.1381 9.2088 21.2068 9.31618C21.2899 9.44678 21.3588 9.58405 21.4288 9.72342C21.4355 9.73666 21.4421 9.74991 21.4488 9.76318C21.4676 9.80081 21.4871 9.83788 21.5065 9.87491C21.5511 9.9599 21.5956 10.0446 21.6318 10.1352C21.7001 10.3021 21.7479 10.4784 21.7957 10.6547C21.7997 10.6695 21.8038 10.6844 21.8078 10.6992C21.8193 10.7423 21.8327 10.7848 21.846 10.8273ZM13.0002 17.6438L14.3052 16.3838C14.7032 16.0008 15.3362 16.0118 15.7192 16.4088C16.1032 16.8068 16.0922 17.4398 15.6952 17.8228L12.6952 20.7198C12.5002 20.9058 12.2502 20.9998 12.0002 20.9998C11.7442 20.9998 11.4882 20.9028 11.2932 20.7068L8.2932 17.7068C7.9022 17.3168 7.9022 16.6838 8.2932 16.2928C8.6832 15.9028 9.3162 15.9028 9.7072 16.2928L11.0002 17.5858V11.9998C11.0002 11.4468 11.4482 10.9998 12.0002 10.9998C12.5522 10.9998 13.0002 11.4468 13.0002 11.9998V17.6438Z" fill="#18203A"/>
<mask id="mask0" mask-type="alpha" maskUnits="userSpaceOnUse" x="1" y="3" width="21" height="18">
<path id="&#240;&#159;&#142;&#168; Icon &#208;&#161;olor_2" fill-rule="evenodd" clip-rule="evenodd" d="M21.846 10.8273C21.8673 10.8953 21.8886 10.9634 21.9028 11.0342C21.9648 11.3472 21.9998 11.6692 21.9998 12.0002C21.9998 12.3082 21.9638 12.6112 21.9078 12.9102C21.8954 12.9783 21.8788 13.0437 21.8621 13.1091C21.8545 13.1387 21.847 13.1683 21.8398 13.1982C21.7898 13.3972 21.7308 13.5922 21.6578 13.7832C21.6198 13.8822 21.5808 13.9792 21.5368 14.0752C21.4498 14.2652 21.3488 14.4472 21.2378 14.6262C21.2206 14.6539 21.2041 14.6821 21.1877 14.7103C21.1604 14.7572 21.1331 14.8042 21.1018 14.8492C21.0927 14.8622 21.0849 14.8756 21.0772 14.8889C21.0689 14.9034 21.0607 14.9177 21.0508 14.9312C21.0431 14.9422 21.0323 14.9493 21.0217 14.9563C21.0131 14.9619 21.0045 14.9676 20.9978 14.9752C20.0858 16.1972 18.6418 17.0002 16.9998 17.0002H16.9878C16.9638 16.5342 16.7868 16.0752 16.4388 15.7152C16.0648 15.3262 15.5398 15.1032 14.9998 15.1032C14.6438 15.1032 14.3008 15.1962 13.9998 15.3712V12.0002C13.9998 10.8972 13.1028 10.0002 11.9998 10.0002C10.8978 10.0002 9.9998 10.8972 9.9998 12.0002V15.2662C9.6988 15.0932 9.3568 15.0002 8.9998 15.0002C8.4658 15.0002 7.9638 15.2082 7.5858 15.5862C7.1958 15.9752 7.0008 16.4882 7.0008 17.0002H6.9998C5.3578 17.0002 3.9138 16.1972 3.0028 14.9752C2.99579 14.9677 2.98725 14.9622 2.97868 14.9567C2.96769 14.9496 2.95667 14.9424 2.9488 14.9312C2.93823 14.9167 2.92951 14.9013 2.92075 14.8858C2.91378 14.8735 2.90678 14.8612 2.8988 14.8492C2.86688 14.8032 2.83863 14.7552 2.81041 14.7073C2.79442 14.6801 2.77844 14.6529 2.7618 14.6262C2.6518 14.4472 2.5498 14.2652 2.4628 14.0752C2.42022 13.9823 2.38325 13.8884 2.34556 13.7927L2.3418 13.7832C2.2698 13.5922 2.2098 13.3972 2.1608 13.1982C2.15448 13.1729 2.14794 13.1478 2.14142 13.1227C2.12319 13.0527 2.10506 12.9831 2.0918 12.9102C2.0368 12.6112 1.9998 12.3082 1.9998 12.0002C1.9998 11.6692 2.0358 11.3472 2.0968 11.0342C2.11138 10.9613 2.13358 10.8913 2.15578 10.8212C2.16861 10.7807 2.18144 10.7402 2.1928 10.6992C2.19698 10.6838 2.20115 10.6685 2.20532 10.6531C2.25299 10.4774 2.30067 10.3016 2.3678 10.1352C2.40402 10.0446 2.44849 9.9599 2.4931 9.87491C2.51253 9.83788 2.53199 9.80081 2.5508 9.76318C2.5572 9.75047 2.56358 9.73777 2.56995 9.72508C2.64023 9.58514 2.70945 9.4473 2.7938 9.31618C2.85757 9.21528 2.92981 9.1222 3.00211 9.02904C3.01938 9.00679 3.03665 8.98454 3.0538 8.96218L3.05735 8.95763C3.15414 8.83317 3.25012 8.70977 3.3578 8.59418C3.45428 8.49014 3.55791 8.39683 3.66278 8.30241C3.66878 8.29701 3.67479 8.2916 3.6808 8.28618C3.7988 8.18018 3.9188 8.07818 4.0468 7.98418C4.1658 7.89618 4.2878 7.81618 4.4148 7.74018C4.5548 7.65418 4.6978 7.57718 4.8458 7.50618C4.9758 7.44318 5.1058 7.38618 5.2418 7.33518C5.4038 7.27318 5.5708 7.22418 5.7408 7.18018C5.8758 7.14418 6.0078 7.10918 6.1478 7.08618C6.17422 7.08134 6.19987 7.07436 6.22551 7.06739C6.25809 7.05852 6.29067 7.04966 6.3248 7.04518C7.1458 4.66118 9.4198 3.00018 11.9998 3.00018C14.5808 3.00018 16.8548 4.66118 17.6748 7.04518C17.709 7.04967 17.742 7.05856 17.7749 7.06744C17.8007 7.0744 17.8264 7.08135 17.8528 7.08618C17.9918 7.10918 18.1248 7.14418 18.2588 7.18018C18.4288 7.22418 18.5958 7.27318 18.7578 7.33518C18.8938 7.38618 19.0248 7.44318 19.1538 7.50618C19.3018 7.57718 19.4448 7.65418 19.5848 7.74018C19.7118 7.81618 19.8348 7.89618 19.9538 7.98418C20.0808 8.07818 20.2008 8.18018 20.3188 8.28618C20.4308 8.38618 20.5398 8.48418 20.6428 8.59418C20.7518 8.71118 20.8488 8.83618 20.9458 8.96218C20.9585 8.97854 20.9712 8.99483 20.9839 9.0111C21.0612 9.11028 21.1381 9.2088 21.2068 9.31618C21.2899 9.44678 21.3588 9.58405 21.4288 9.72342C21.4355 9.73666 21.4421 9.74991 21.4488 9.76318C21.4676 9.80081 21.4871 9.83788 21.5065 9.87491C21.5511 9.9599 21.5956 10.0446 21.6318 10.1352C21.7001 10.3021 21.7479 10.4784 21.7957 10.6547C21.7997 10.6695 21.8038 10.6844 21.8078 10.6992C21.8193 10.7423 21.8327 10.7848 21.846 10.8273ZM13.0002 17.6438L14.3052 16.3838C14.7032 16.0008 15.3362 16.0118 15.7192 16.4088C16.1032 16.8068 16.0922 17.4398 15.6952 17.8228L12.6952 20.7198C12.5002 20.9058 12.2502 20.9998 12.0002 20.9998C11.7442 20.9998 11.4882 20.9028 11.2932 20.7068L8.2932 17.7068C7.9022 17.3168 7.9022 16.6838 8.2932 16.2928C8.6832 15.9028 9.3162 15.9028 9.7072 16.2928L11.0002 17.5858V11.9998C11.0002 11.4468 11.4482 10.9998 12.0002 10.9998C12.5522 10.9998 13.0002 11.4468 13.0002 11.9998V17.6438Z" fill="white"/>
</mask>
<g mask="url(#mask0)">
</g>
</g>
</svg>
