<svg width="24" height="24" viewBox="0 0 24 24" fill="none" xmlns="http://www.w3.org/2000/svg">
<g id="01) Icons/Filled/cube-fill">
<path id="&#240;&#159;&#142;&#168; Icon &#208;&#161;olor" fill-rule="evenodd" clip-rule="evenodd" d="M12 10.5029L20.512 6.92488C20.366 6.77588 20.201 6.64288 20.001 6.54988L12.801 3.17588C12.296 2.94088 11.704 2.94088 11.199 3.17588L3.99899 6.54988C3.79899 6.64288 3.63399 6.77588 3.48799 6.92488L12 10.5029ZM11.25 11.8271L2.99999 8.35908V16.0881C2.99499 16.7291 3.37899 17.3171 3.98999 17.6061L11.19 20.9791C11.1997 20.9837 11.2099 20.9867 11.2203 20.9898C11.2302 20.9927 11.2402 20.9957 11.25 21.0001V11.8271ZM12.75 20.9971V11.8271L21 8.35908V16.0971C21 16.7361 20.613 17.3211 20.001 17.6061L12.801 20.9791C12.7919 20.9836 12.7822 20.9865 12.7725 20.9895C12.7649 20.9918 12.7574 20.994 12.75 20.9971Z" fill="#18203A"/>
<mask id="mask0" mask-type="alpha" maskUnits="userSpaceOnUse" x="3" y="2" width="18" height="19">
<path id="&#240;&#159;&#142;&#168; Icon &#208;&#161;olor_2" fill-rule="evenodd" clip-rule="evenodd" d="M12 10.5029L20.512 6.92488C20.366 6.77588 20.201 6.64288 20.001 6.54988L12.801 3.17588C12.296 2.94088 11.704 2.94088 11.199 3.17588L3.99899 6.54988C3.79899 6.64288 3.63399 6.77588 3.48799 6.92488L12 10.5029ZM11.25 11.8271L2.99999 8.35908V16.0881C2.99499 16.7291 3.37899 17.3171 3.98999 17.6061L11.19 20.9791C11.1997 20.9837 11.2099 20.9867 11.2203 20.9898C11.2302 20.9927 11.2402 20.9957 11.25 21.0001V11.8271ZM12.75 20.9971V11.8271L21 8.35908V16.0971C21 16.7361 20.613 17.3211 20.001 17.6061L12.801 20.9791C12.7919 20.9836 12.7822 20.9865 12.7725 20.9895C12.7649 20.9918 12.7574 20.994 12.75 20.9971Z" fill="white"/>
</mask>
<g mask="url(#mask0)">
</g>
</g>
</svg>
