<svg width="24" height="24" viewBox="0 0 24 24" fill="none" xmlns="http://www.w3.org/2000/svg">
<g id="01) Icons/Filled/dropdown">
<circle id="Oval" cx="12" cy="12" r="9.5" stroke="#222B45"/>
<path id="&#240;&#159;&#142;&#168; Icon &#208;&#161;olor" fill-rule="evenodd" clip-rule="evenodd" d="M12.0002 16.0002C11.7442 16.0002 11.4883 15.9023 11.2933 15.7073L7.29325 11.7072C6.90225 11.3162 6.90225 10.6842 7.29325 10.2932C7.68425 9.90225 8.31625 9.90225 8.70725 10.2932L12.0122 13.5982L15.3053 10.4182C15.7043 10.0353 16.3352 10.0462 16.7192 10.4433C17.1032 10.8403 17.0922 11.4742 16.6952 11.8572L12.6953 15.7193C12.5002 15.9073 12.2502 16.0002 12.0002 16.0002Z" fill="#18203A"/>
<mask id="mask0" mask-type="alpha" maskUnits="userSpaceOnUse" x="7" y="10" width="11" height="7">
<path id="&#240;&#159;&#142;&#168; Icon &#208;&#161;olor_2" fill-rule="evenodd" clip-rule="evenodd" d="M12.0002 16.0002C11.7442 16.0002 11.4883 15.9023 11.2933 15.7073L7.29325 11.7072C6.90225 11.3162 6.90225 10.6842 7.29325 10.2932C7.68425 9.90225 8.31625 9.90225 8.70725 10.2932L12.0122 13.5982L15.3053 10.4182C15.7043 10.0353 16.3352 10.0462 16.7192 10.4433C17.1032 10.8403 17.0922 11.4742 16.6952 11.8572L12.6953 15.7193C12.5002 15.9073 12.2502 16.0002 12.0002 16.0002Z" fill="white"/>
</mask>
<g mask="url(#mask0)">
</g>
</g>
</svg>
