<svg width="24" height="24" viewBox="0 0 24 24" fill="none" xmlns="http://www.w3.org/2000/svg">
<g id="01) Icons/Filled/file-remove-fill">
<path id="&#240;&#159;&#142;&#168; Icon &#208;&#161;olor" fill-rule="evenodd" clip-rule="evenodd" d="M14.7139 8C14.3199 8 13.9999 7.619 13.9999 7.15V3.978L17.7419 8H14.7139ZM13.9999 15H9.9999C9.4469 15 8.9999 14.552 8.9999 14C8.9999 13.448 9.4469 13 9.9999 13H13.9999C14.5529 13 14.9999 13.448 14.9999 14C14.9999 14.552 14.5529 15 13.9999 15ZM19.7399 7.328L15.2959 2.328C15.1069 2.119 14.8379 2 14.5559 2H6.5559C5.1469 2 3.9999 3.122 3.9999 4.5V19.5C3.9999 20.878 5.1469 22 6.5559 22H17.4439C18.8539 22 19.9999 20.878 19.9999 19.5V8C19.9999 7.751 19.9069 7.512 19.7399 7.328Z" fill="#18203A"/>
<mask id="mask0" mask-type="alpha" maskUnits="userSpaceOnUse" x="4" y="2" width="16" height="20">
<path id="&#240;&#159;&#142;&#168; Icon &#208;&#161;olor_2" fill-rule="evenodd" clip-rule="evenodd" d="M14.7139 8C14.3199 8 13.9999 7.619 13.9999 7.15V3.978L17.7419 8H14.7139ZM13.9999 15H9.9999C9.4469 15 8.9999 14.552 8.9999 14C8.9999 13.448 9.4469 13 9.9999 13H13.9999C14.5529 13 14.9999 13.448 14.9999 14C14.9999 14.552 14.5529 15 13.9999 15ZM19.7399 7.328L15.2959 2.328C15.1069 2.119 14.8379 2 14.5559 2H6.5559C5.1469 2 3.9999 3.122 3.9999 4.5V19.5C3.9999 20.878 5.1469 22 6.5559 22H17.4439C18.8539 22 19.9999 20.878 19.9999 19.5V8C19.9999 7.751 19.9069 7.512 19.7399 7.328Z" fill="white"/>
</mask>
<g mask="url(#mask0)">
</g>
</g>
</svg>
