<svg width="24" height="24" viewBox="0 0 24 24" fill="none" xmlns="http://www.w3.org/2000/svg">
<g id="01) Icons/Filled/flag">
<circle id="Oval Copy" cx="12" cy="12" r="12" fill="#18203A"/>
<path id="Path" fill-rule="evenodd" clip-rule="evenodd" d="M17.4525 6.30667C17.1053 6.04719 16.6595 5.97496 16.2525 6.11222C15.7231 6.2666 15.1748 6.33997 14.625 6.33C13.8125 6.28426 13.0157 6.07837 12.2775 5.72333C11.3655 5.28594 10.3791 5.0401 9.37502 5C7.20752 5 6.37502 5.77778 6.22502 5.88667C6.08002 6.03405 5.99883 6.23611 6.00002 6.44667V18.2222C6.00002 18.6518 6.33581 19 6.75002 19C7.16423 19 7.50002 18.6518 7.50002 18.2222V14.8778C8.09764 14.6405 8.73562 14.532 9.37502 14.5589C10.1876 14.6046 10.9843 14.8105 11.7225 15.1656C12.6345 15.603 13.621 15.8488 14.625 15.8889C15.5291 15.9243 16.4286 15.7378 17.25 15.3444C17.7017 15.1244 17.9929 14.6564 18 14.1389V7.41889C17.9995 6.9787 17.796 6.56531 17.4525 6.30667Z" fill="white"/>
</g>
</svg>
