<svg width="24" height="24" viewBox="0 0 24 24" fill="none" xmlns="http://www.w3.org/2000/svg">
<g id="01) Icons/Filled/flash-fill">
<path id="&#240;&#159;&#142;&#168; Icon &#208;&#161;olor" fill-rule="evenodd" clip-rule="evenodd" d="M11.1113 23.0001C10.9973 23.0001 10.8823 22.9801 10.7693 22.9391C10.3373 22.7821 10.0673 22.3501 10.1173 21.8931L10.8853 14.8001H5.0003C4.6313 14.8001 4.2923 14.5971 4.1183 14.2711C3.9443 13.9451 3.9643 13.5511 4.1693 13.2441L12.0573 1.44412C12.3133 1.06112 12.7973 0.902121 13.2303 1.06112C13.6633 1.21812 13.9323 1.65012 13.8823 2.10712L13.1143 9.20012H19.0003C19.3693 9.20012 19.7083 9.40312 19.8823 9.72912C20.0553 10.0551 20.0363 10.4491 19.8313 10.7561L11.9423 22.5561C11.7533 22.8401 11.4373 23.0001 11.1113 23.0001Z" fill="#18203A"/>
<mask id="mask0" mask-type="alpha" maskUnits="userSpaceOnUse" x="4" y="1" width="16" height="23">
<path id="&#240;&#159;&#142;&#168; Icon &#208;&#161;olor_2" fill-rule="evenodd" clip-rule="evenodd" d="M11.1113 23.0001C10.9973 23.0001 10.8823 22.9801 10.7693 22.9391C10.3373 22.7821 10.0673 22.3501 10.1173 21.8931L10.8853 14.8001H5.0003C4.6313 14.8001 4.2923 14.5971 4.1183 14.2711C3.9443 13.9451 3.9643 13.5511 4.1693 13.2441L12.0573 1.44412C12.3133 1.06112 12.7973 0.902121 13.2303 1.06112C13.6633 1.21812 13.9323 1.65012 13.8823 2.10712L13.1143 9.20012H19.0003C19.3693 9.20012 19.7083 9.40312 19.8823 9.72912C20.0553 10.0551 20.0363 10.4491 19.8313 10.7561L11.9423 22.5561C11.7533 22.8401 11.4373 23.0001 11.1113 23.0001Z" fill="white"/>
</mask>
<g mask="url(#mask0)">
</g>
</g>
</svg>
