<svg width="24" height="24" viewBox="0 0 24 24" fill="none" xmlns="http://www.w3.org/2000/svg">
<g id="01) Icons/Filled/flash-off-fill">
<path id="&#240;&#159;&#142;&#168; Icon &#208;&#161;olor" fill-rule="evenodd" clip-rule="evenodd" d="M17.3281 14.5001L19.8311 10.7561C20.0361 10.4491 20.0561 10.0551 19.8821 9.72912C19.7081 9.40312 19.3691 9.20012 19.0001 9.20012H13.1141L13.8831 2.10712C13.9321 1.65012 13.6631 1.21812 13.2301 1.06112C12.7971 0.902121 12.3131 1.06112 12.0571 1.44412L8.9381 6.11012L17.3281 14.5001ZM6.6719 9.50012L4.1689 13.2441C3.9639 13.5511 3.9439 13.9451 4.1179 14.2711C4.2919 14.5971 4.6309 14.8001 4.9999 14.8001H10.8859L10.1169 21.8931C10.0679 22.3501 10.3369 22.7821 10.7699 22.9391C10.8819 22.9801 10.9969 23.0001 11.1109 23.0001C11.4379 23.0001 11.7529 22.8401 11.9429 22.5561L15.0619 17.8901L6.6719 9.50012ZM4.707 3.29302L20.707 19.293C21.098 19.684 21.098 20.316 20.707 20.707C20.512 20.902 20.256 21 20 21C19.744 21 19.488 20.902 19.293 20.707L3.293 4.70702C2.902 4.31602 2.902 3.68402 3.293 3.29302C3.684 2.90202 4.316 2.90202 4.707 3.29302Z" fill="#18203A"/>
<mask id="mask0" mask-type="alpha" maskUnits="userSpaceOnUse" x="2" y="1" width="20" height="23">
<path id="&#240;&#159;&#142;&#168; Icon &#208;&#161;olor_2" fill-rule="evenodd" clip-rule="evenodd" d="M17.3281 14.5001L19.8311 10.7561C20.0361 10.4491 20.0561 10.0551 19.8821 9.72912C19.7081 9.40312 19.3691 9.20012 19.0001 9.20012H13.1141L13.8831 2.10712C13.9321 1.65012 13.6631 1.21812 13.2301 1.06112C12.7971 0.902121 12.3131 1.06112 12.0571 1.44412L8.9381 6.11012L17.3281 14.5001ZM6.6719 9.50012L4.1689 13.2441C3.9639 13.5511 3.9439 13.9451 4.1179 14.2711C4.2919 14.5971 4.6309 14.8001 4.9999 14.8001H10.8859L10.1169 21.8931C10.0679 22.3501 10.3369 22.7821 10.7699 22.9391C10.8819 22.9801 10.9969 23.0001 11.1109 23.0001C11.4379 23.0001 11.7529 22.8401 11.9429 22.5561L15.0619 17.8901L6.6719 9.50012ZM4.707 3.29302L20.707 19.293C21.098 19.684 21.098 20.316 20.707 20.707C20.512 20.902 20.256 21 20 21C19.744 21 19.488 20.902 19.293 20.707L3.293 4.70702C2.902 4.31602 2.902 3.68402 3.293 3.29302C3.684 2.90202 4.316 2.90202 4.707 3.29302Z" fill="white"/>
</mask>
<g mask="url(#mask0)">
</g>
</g>
</svg>
