<svg width="24" height="24" viewBox="0 0 24 24" fill="none" xmlns="http://www.w3.org/2000/svg">
<g id="01) Icons/Filled/hard-drive-fill">
<path id="&#240;&#159;&#142;&#168; Icon &#208;&#161;olor" fill-rule="evenodd" clip-rule="evenodd" d="M5.61821 11L8.34221 5.553C8.51221 5.212 8.85521 5 9.23621 5H14.7642C15.1452 5 15.4882 5.212 15.6582 5.553L18.3822 11H5.61821ZM16.0002 17H12.0002C11.4502 17 11.0002 16.55 11.0002 16C11.0002 15.45 11.4502 15 12.0002 15H16.0002C16.5502 15 17.0002 15.45 17.0002 16C17.0002 16.55 16.5502 17 16.0002 17ZM8.00021 17C7.45021 17 7.00021 16.55 7.00021 16C7.00021 15.45 7.45021 15 8.00021 15C8.55021 15 9.00021 15.45 9.00021 16C9.00021 16.55 8.55021 17 8.00021 17ZM20.7892 11.342L17.4472 4.658C16.9352 3.636 15.9082 3 14.7642 3H9.23621C8.09221 3 7.06421 3.636 6.55321 4.658L3.21121 11.342C3.07321 11.618 3.00021 11.928 3.00021 12.236V18C3.00021 19.654 4.34621 21 6.00021 21H18.0002C19.6542 21 21.0002 19.654 21.0002 18V12.236C21.0002 11.928 20.9272 11.618 20.7892 11.342Z" fill="#18203A"/>
<mask id="mask0" mask-type="alpha" maskUnits="userSpaceOnUse" x="3" y="3" width="19" height="18">
<path id="&#240;&#159;&#142;&#168; Icon &#208;&#161;olor_2" fill-rule="evenodd" clip-rule="evenodd" d="M5.61821 11L8.34221 5.553C8.51221 5.212 8.85521 5 9.23621 5H14.7642C15.1452 5 15.4882 5.212 15.6582 5.553L18.3822 11H5.61821ZM16.0002 17H12.0002C11.4502 17 11.0002 16.55 11.0002 16C11.0002 15.45 11.4502 15 12.0002 15H16.0002C16.5502 15 17.0002 15.45 17.0002 16C17.0002 16.55 16.5502 17 16.0002 17ZM8.00021 17C7.45021 17 7.00021 16.55 7.00021 16C7.00021 15.45 7.45021 15 8.00021 15C8.55021 15 9.00021 15.45 9.00021 16C9.00021 16.55 8.55021 17 8.00021 17ZM20.7892 11.342L17.4472 4.658C16.9352 3.636 15.9082 3 14.7642 3H9.23621C8.09221 3 7.06421 3.636 6.55321 4.658L3.21121 11.342C3.07321 11.618 3.00021 11.928 3.00021 12.236V18C3.00021 19.654 4.34621 21 6.00021 21H18.0002C19.6542 21 21.0002 19.654 21.0002 18V12.236C21.0002 11.928 20.9272 11.618 20.7892 11.342Z" fill="white"/>
</mask>
<g mask="url(#mask0)">
</g>
</g>
</svg>
