<svg width="24" height="24" viewBox="0 0 24 24" fill="none" xmlns="http://www.w3.org/2000/svg">
<g id="01) Icons/Filled/Heart circle">
<path id="Shape" fill-rule="evenodd" clip-rule="evenodd" d="M12 2C6.486 2 2 6.486 2 12C2 17.514 6.486 22 12 22C17.514 22 22 17.514 22 12C22 6.486 17.514 2 12 2ZM16.186 12.74L12 16.926L7.814 12.74C7.29153 12.2242 6.99744 11.5207 6.99744 10.7865C6.99744 10.0523 7.29153 9.34877 7.814 8.833C8.32973 8.31084 9.03308 8.01694 9.767 8.01694C10.5009 8.01694 11.2043 8.31084 11.72 8.833L12 9.112L12.279 8.833C12.7947 8.31084 13.4981 8.01694 14.232 8.01694C14.9659 8.01694 15.6693 8.31084 16.185 8.833C16.7076 9.34864 17.0019 10.0521 17.0021 10.7863C17.0023 11.5205 16.7083 12.2241 16.186 12.74Z" fill="#18203A"/>
</g>
</svg>
