<svg width="24" height="24" viewBox="0 0 24 24" fill="none" xmlns="http://www.w3.org/2000/svg">
<g id="01) Icons/Filled/inbox-fill">
<path id="&#240;&#159;&#142;&#168; Icon &#208;&#161;olor" fill-rule="evenodd" clip-rule="evenodd" d="M8.3418 5.55269C8.5108 5.21369 8.8578 4.99969 9.2368 4.99969H14.7638C15.1428 4.99969 15.4888 5.21369 15.6578 5.55269L18.3818 10.9997H15.9998C15.4478 10.9997 14.9998 11.4477 14.9998 11.9997V13.9997C14.9998 14.5527 14.5518 14.9997 13.9998 14.9997H9.9998C9.4478 14.9997 8.9998 14.5527 8.9998 13.9997V11.9997C8.9998 11.4477 8.5518 10.9997 7.9998 10.9997H5.6178L8.3418 5.55269ZM20.7888 11.3417L17.4468 4.65769C16.9358 3.63569 15.9078 2.99969 14.7638 2.99969H9.2358C8.0918 2.99969 7.0648 3.63569 6.5528 4.65769L3.2108 11.3417C3.0728 11.6177 2.9998 11.9277 2.9998 12.2367V17.9997C2.9998 19.6547 4.3458 20.9997 5.9998 20.9997H17.9998C19.6548 20.9997 20.9998 19.6547 20.9998 17.9997V12.2367C20.9998 11.9277 20.9268 11.6177 20.7888 11.3417Z" fill="#18203A"/>
<mask id="mask0" mask-type="alpha" maskUnits="userSpaceOnUse" x="2" y="2" width="19" height="19">
<path id="&#240;&#159;&#142;&#168; Icon &#208;&#161;olor_2" fill-rule="evenodd" clip-rule="evenodd" d="M8.3418 5.55269C8.5108 5.21369 8.8578 4.99969 9.2368 4.99969H14.7638C15.1428 4.99969 15.4888 5.21369 15.6578 5.55269L18.3818 10.9997H15.9998C15.4478 10.9997 14.9998 11.4477 14.9998 11.9997V13.9997C14.9998 14.5527 14.5518 14.9997 13.9998 14.9997H9.9998C9.4478 14.9997 8.9998 14.5527 8.9998 13.9997V11.9997C8.9998 11.4477 8.5518 10.9997 7.9998 10.9997H5.6178L8.3418 5.55269ZM20.7888 11.3417L17.4468 4.65769C16.9358 3.63569 15.9078 2.99969 14.7638 2.99969H9.2358C8.0918 2.99969 7.0648 3.63569 6.5528 4.65769L3.2108 11.3417C3.0728 11.6177 2.9998 11.9277 2.9998 12.2367V17.9997C2.9998 19.6547 4.3458 20.9997 5.9998 20.9997H17.9998C19.6548 20.9997 20.9998 19.6547 20.9998 17.9997V12.2367C20.9998 11.9277 20.9268 11.6177 20.7888 11.3417Z" fill="white"/>
</mask>
<g mask="url(#mask0)">
</g>
</g>
</svg>
