<svg width="24" height="24" viewBox="0 0 24 24" fill="none" xmlns="http://www.w3.org/2000/svg">
<g id="01) Icons/Filled/Like">
<path id="Shape" fill-rule="evenodd" clip-rule="evenodd" d="M18.9375 8.25H13.2738V4.83625C13.3663 3.29875 12.9237 2.00125 11.9788 2.0025C10.3337 2.005 10.38 3.33125 10.38 3.33125C10.0875 8.0375 5.75 9.5 5.75 9.5V19.5L6.32625 19.5775C11.055 19.5775 8.2175 22 15.9875 22C21.8875 22 22 16.8075 22 13.25C22 9.6925 20.3787 8.25 18.9375 8.25ZM3.25 20.75C3.94036 20.75 4.5 20.1904 4.5 19.5V9.53875C4.5 8.8484 3.94036 8.28875 3.25 8.28875C2.55964 8.28875 2 8.8484 2 9.53875V19.5C2 20.1904 2.55964 20.75 3.25 20.75Z" fill="#18203A"/>
</g>
</svg>
