<svg width="24" height="24" viewBox="0 0 24 24" fill="none" xmlns="http://www.w3.org/2000/svg">
<g id="01) Icons/Filled/Like circle">
<circle id="Oval" cx="12" cy="12" r="10" fill="#18203A"/>
<path id="Shape Copy" fill-rule="evenodd" clip-rule="evenodd" d="M16.1638 9.74897H12.7651V7.70046C12.8206 6.77785 12.5551 5.99925 11.988 6C11.0009 6.0015 11.0286 6.79735 11.0286 6.79735C10.8531 9.62145 8.25028 10.4991 8.25028 10.4991V16.4998L8.59607 16.5463C11.4337 16.5463 9.73097 18 14.3935 18C17.934 18 18.0015 14.8841 18.0015 12.7493C18.0015 10.6146 17.0286 9.74897 16.1638 9.74897ZM6.75009 17.2499C7.16436 17.2499 7.50019 16.9141 7.50019 16.4998V10.5223C7.50019 10.1081 7.16436 9.77222 6.75009 9.77222C6.33583 9.77222 6 10.1081 6 10.5223V16.4998C6 16.9141 6.33583 17.2499 6.75009 17.2499Z" fill="white"/>
</g>
</svg>
