<svg width="24" height="24" viewBox="0 0 24 24" fill="none" xmlns="http://www.w3.org/2000/svg">
<g id="01) Icons/Filled/magic">
<path id="Shape" fill-rule="evenodd" clip-rule="evenodd" d="M11 4L10.5 3L10 4L9 4.125L9.834 4.833L9.5 6L10.5 5.334L11.5 6L11.166 4.833L12 4.125L11 4ZM19.334 14.666L18.5 13L17.666 14.666L16 14.875L17.389 16.056L16.834 18L18.5 16.889L20.166 18L19.611 16.056L21 14.875L19.334 14.666ZM6.667 6.333L6 5L5.333 6.333L4 6.5L5.111 7.444L4.667 9L6 8.111L7.333 9L6.889 7.444L8 6.5L6.667 6.333ZM3.414 17C3.414 17.534 3.622 18.036 4 18.414L5.586 20C5.964 20.378 6.466 20.586 7 20.586C7.534 20.586 8.036 20.378 8.414 20L20 8.414C20.378 8.036 20.586 7.534 20.586 7C20.586 6.466 20.378 5.964 20 5.586L18.414 4C17.658 3.244 16.342 3.244 15.586 4L4 15.586C3.622 15.964 3.414 16.466 3.414 17ZM17 5.414L18.586 7L15 10.586L13.414 9L17 5.414Z" fill="#18203A"/>
</g>
</svg>
