<svg width="24" height="24" viewBox="0 0 24 24" fill="none" xmlns="http://www.w3.org/2000/svg">
<g id="01) Icons/Filled/navigation-2-fill">
<path id="&#240;&#159;&#142;&#168; Icon &#208;&#161;olor" fill-rule="evenodd" clip-rule="evenodd" d="M13.667 22C13.646 22 13.626 21.999 13.606 21.998C13.154 21.971 12.777 21.643 12.687 21.199L11.149 13.632C11.069 13.238 10.762 12.931 10.368 12.851L2.80101 11.312C2.35701 11.223 2.02901 10.846 2.00201 10.394C1.97501 9.94097 2.25401 9.52697 2.68401 9.38497L18.684 4.05197C19.043 3.92997 19.439 4.02397 19.707 4.29297C19.975 4.56097 20.068 4.95697 19.949 5.31597L14.615 21.316C14.479 21.727 14.095 22 13.667 22Z" fill="#18203A"/>
<mask id="mask0" mask-type="alpha" maskUnits="userSpaceOnUse" x="2" y="3" width="18" height="19">
<path id="&#240;&#159;&#142;&#168; Icon &#208;&#161;olor_2" fill-rule="evenodd" clip-rule="evenodd" d="M13.667 22C13.646 22 13.626 21.999 13.606 21.998C13.154 21.971 12.777 21.643 12.687 21.199L11.149 13.632C11.069 13.238 10.762 12.931 10.368 12.851L2.80101 11.312C2.35701 11.223 2.02901 10.846 2.00201 10.394C1.97501 9.94097 2.25401 9.52697 2.68401 9.38497L18.684 4.05197C19.043 3.92997 19.439 4.02397 19.707 4.29297C19.975 4.56097 20.068 4.95697 19.949 5.31597L14.615 21.316C14.479 21.727 14.095 22 13.667 22Z" fill="white"/>
</mask>
<g mask="url(#mask0)">
</g>
</g>
</svg>
