<svg width="24" height="24" viewBox="0 0 24 24" fill="none" xmlns="http://www.w3.org/2000/svg">
<g id="01) Icons/Filled/note">
<path id="Rectangle 2" fill-rule="evenodd" clip-rule="evenodd" d="M4 3C3.44772 3 3 3.44772 3 4V5C3 5.55228 3.44772 6 4 6H5C5.55228 6 6 5.55228 6 5V4C6 3.44772 5.55228 3 5 3H4ZM4 18C3.44772 18 3 18.4477 3 19V20C3 20.5523 3.44772 21 4 21H5C5.55228 21 6 20.5523 6 20V19C6 18.4477 5.55228 18 5 18H4ZM3 14C3 13.4477 3.44772 13 4 13H5C5.55228 13 6 13.4477 6 14V15C6 15.5523 5.55228 16 5 16H4C3.44772 16 3 15.5523 3 15V14ZM4 8C3.44772 8 3 8.44772 3 9V10C3 10.5523 3.44772 11 4 11H5C5.55228 11 6 10.5523 6 10V9C6 8.44772 5.55228 8 5 8H4ZM8 4C8 3.44772 8.44772 3 9 3H10C10.5523 3 11 3.44772 11 4V5C11 5.55228 10.5523 6 10 6H9C8.44772 6 8 5.55228 8 5V4ZM9 13C8.44772 13 8 13.4477 8 14V15C8 15.5523 8.44772 16 9 16H10C10.5523 16 11 15.5523 11 15V14C11 13.4477 10.5523 13 10 13H9ZM8 9C8 8.44772 8.44772 8 9 8H10C10.5523 8 11 8.44772 11 9V10C11 10.5523 10.5523 11 10 11H9C8.44772 11 8 10.5523 8 10V9ZM9 18C8.44772 18 8 18.4477 8 19V20C8 20.5523 8.44772 21 9 21H10C10.5523 21 11 20.5523 11 20V19C11 18.4477 10.5523 18 10 18H9ZM13 4C13 3.44772 13.4477 3 14 3H15C15.5523 3 16 3.44772 16 4V5C16 5.55228 15.5523 6 15 6H14C13.4477 6 13 5.55228 13 5V4ZM14 13C13.4477 13 13 13.4477 13 14V15C13 15.5523 13.4477 16 14 16H15C15.5523 16 16 15.5523 16 15V14C16 13.4477 15.5523 13 15 13H14ZM13 9C13 8.44772 13.4477 8 14 8H15C15.5523 8 16 8.44772 16 9V10C16 10.5523 15.5523 11 15 11H14C13.4477 11 13 10.5523 13 10V9ZM14 18C13.4477 18 13 18.4477 13 19V20C13 20.5523 13.4477 21 14 21H15C15.5523 21 16 20.5523 16 20V19C16 18.4477 15.5523 18 15 18H14Z" fill="#8F9BB3"/>
</g>
</svg>
