<svg width="24" height="24" viewBox="0 0 24 24" fill="none" xmlns="http://www.w3.org/2000/svg">
<g id="01) Icons/Filled/pet">
<path id="Path 2" fill-rule="evenodd" clip-rule="evenodd" d="M9 7C10.3807 7 11.5 5.88071 11.5 4.5C11.5 3.11929 10.3807 2 9 2C7.61929 2 6.5 3.11929 6.5 4.5C6.5 5.88071 7.61929 7 9 7ZM7 8.5C7 9.88071 5.88071 11 4.5 11C3.11929 11 2 9.88071 2 8.5C2 7.11929 3.11929 6 4.5 6C5.88071 6 7 7.11929 7 8.5ZM17.34 13.86C16.9025 13.3525 16.5013 12.88 16.1 12.4075C15.6988 11.935 15.2975 11.4625 14.86 10.955C14.395 10.415 13.81 9.87 13.115 9.635C13.01 9.6 12.9 9.57 12.785 9.55C12.53 9.5 12.26 9.5 12 9.5C11.74 9.5 11.47 9.5 11.215 9.55C11.105 9.57 10.995 9.6 10.885 9.635C10.19 9.87 9.605 10.415 9.14 10.955C8.7025 11.4625 8.30125 11.935 7.9 12.4075C7.49875 12.88 7.0975 13.3525 6.66 13.86C6.58855 13.9312 6.51621 14.0028 6.44336 14.075L6.44319 14.0751L6.44277 14.0755C5.18011 15.3259 3.76086 16.7313 4.035 18.655C4.325 19.67 5.055 20.69 6.37 20.98C6.70819 21.0472 7.38978 20.9587 8.27058 20.8445C9.29105 20.7121 10.5789 20.545 11.91 20.545C11.925 20.545 11.94 20.5462 11.955 20.5475C11.97 20.5487 11.985 20.55 12 20.55C12.015 20.55 12.03 20.5487 12.045 20.5475L12.0451 20.5475C12.06 20.5462 12.075 20.545 12.09 20.545C13.4211 20.545 14.709 20.7121 15.7294 20.8445C16.6102 20.9587 17.2918 21.0472 17.63 20.98C18.94 20.69 19.67 19.675 19.965 18.655C20.2402 16.7237 18.8132 15.3148 17.543 14.0608C17.4748 13.9934 17.407 13.9265 17.34 13.86ZM17.5 4.5C17.5 5.88071 16.3807 7 15 7C13.6193 7 12.5 5.88071 12.5 4.5C12.5 3.11929 13.6193 2 15 2C16.3807 2 17.5 3.11929 17.5 4.5ZM19.5 11C20.8807 11 22 9.88071 22 8.5C22 7.11929 20.8807 6 19.5 6C18.1193 6 17 7.11929 17 8.5C17 9.88071 18.1193 11 19.5 11Z" fill="#18203A"/>
</g>
</svg>
