<svg width="24" height="24" viewBox="0 0 24 24" fill="none" xmlns="http://www.w3.org/2000/svg">
<g id="01) Icons/Filled/phone-fill">
<path id="&#240;&#159;&#142;&#168; Icon &#208;&#161;olor" fill-rule="evenodd" clip-rule="evenodd" d="M17.3999 22C8.90791 22 1.99991 15.092 1.99991 6.6C1.99991 4.063 4.06391 2 6.59991 2C6.85991 2 7.11691 2.022 7.36591 2.065C7.60891 2.104 7.85391 2.166 8.09091 2.248C8.41691 2.361 8.66091 2.634 8.73791 2.97L10.1079 8.934C10.1829 9.262 10.0879 9.606 9.85491 9.85C9.71791 9.992 9.71491 9.995 8.47491 10.644C9.47891 12.818 11.2239 14.557 13.3549 15.527C14.0039 14.286 14.0079 14.282 14.1499 14.146C14.3949 13.912 14.7399 13.821 15.0669 13.893L21.0309 15.262C21.3659 15.339 21.6389 15.583 21.7519 15.908C21.8339 16.144 21.8949 16.388 21.9359 16.639C21.9779 16.886 21.9999 17.142 21.9999 17.4C21.9999 19.937 19.9369 22 17.3999 22Z" fill="#18203A"/>
<mask id="mask0" mask-type="alpha" maskUnits="userSpaceOnUse" x="2" y="2" width="20" height="20">
<path id="&#240;&#159;&#142;&#168; Icon &#208;&#161;olor_2" fill-rule="evenodd" clip-rule="evenodd" d="M17.3999 22C8.90791 22 1.99991 15.092 1.99991 6.6C1.99991 4.063 4.06391 2 6.59991 2C6.85991 2 7.11691 2.022 7.36591 2.065C7.60891 2.104 7.85391 2.166 8.09091 2.248C8.41691 2.361 8.66091 2.634 8.73791 2.97L10.1079 8.934C10.1829 9.262 10.0879 9.606 9.85491 9.85C9.71791 9.992 9.71491 9.995 8.47491 10.644C9.47891 12.818 11.2239 14.557 13.3549 15.527C14.0039 14.286 14.0079 14.282 14.1499 14.146C14.3949 13.912 14.7399 13.821 15.0669 13.893L21.0309 15.262C21.3659 15.339 21.6389 15.583 21.7519 15.908C21.8339 16.144 21.8949 16.388 21.9359 16.639C21.9779 16.886 21.9999 17.142 21.9999 17.4C21.9999 19.937 19.9369 22 17.3999 22Z" fill="white"/>
</mask>
<g mask="url(#mask0)">
</g>
</g>
</svg>
