<svg width="24" height="24" viewBox="0 0 24 24" fill="none" xmlns="http://www.w3.org/2000/svg">
<g id="01) Icons/Filled/pie-chart-fill">
<path id="&#240;&#159;&#142;&#168; Icon &#208;&#161;olor" fill-rule="evenodd" clip-rule="evenodd" d="M20.2735 8.66657C19.9075 6.11557 17.8845 4.09257 15.3335 3.72657V8.66657H20.2735ZM21.1665 10.3326H14.5005C14.0405 10.3326 13.6665 9.96057 13.6665 9.49957V2.83257C13.6665 2.37257 14.0405 1.99957 14.5005 1.99957C18.6355 1.99957 22.0005 5.36457 22.0005 9.49957C22.0005 9.96057 21.6265 10.3326 21.1665 10.3326ZM12.9345 11.9776H21.0835C21.6255 11.9776 22.0495 12.4496 21.9955 12.9886C21.4515 18.4146 16.5795 22.5666 10.8815 21.9366C6.29651 21.4306 2.56951 17.7036 2.06251 13.1186C1.43451 7.42057 5.58451 2.54757 11.0115 2.00457C11.5515 1.95057 12.0225 2.37357 12.0225 2.91557V11.0666C12.0225 11.5696 12.4305 11.9776 12.9345 11.9776Z" fill="#18203A"/>
<mask id="mask0" mask-type="alpha" maskUnits="userSpaceOnUse" x="1" y="1" width="22" height="21">
<path id="&#240;&#159;&#142;&#168; Icon &#208;&#161;olor_2" fill-rule="evenodd" clip-rule="evenodd" d="M20.2735 8.66657C19.9075 6.11557 17.8845 4.09257 15.3335 3.72657V8.66657H20.2735ZM21.1665 10.3326H14.5005C14.0405 10.3326 13.6665 9.96057 13.6665 9.49957V2.83257C13.6665 2.37257 14.0405 1.99957 14.5005 1.99957C18.6355 1.99957 22.0005 5.36457 22.0005 9.49957C22.0005 9.96057 21.6265 10.3326 21.1665 10.3326ZM12.9345 11.9776H21.0835C21.6255 11.9776 22.0495 12.4496 21.9955 12.9886C21.4515 18.4146 16.5795 22.5666 10.8815 21.9366C6.29651 21.4306 2.56951 17.7036 2.06251 13.1186C1.43451 7.42057 5.58451 2.54757 11.0115 2.00457C11.5515 1.95057 12.0225 2.37357 12.0225 2.91557V11.0666C12.0225 11.5696 12.4305 11.9776 12.9345 11.9776Z" fill="white"/>
</mask>
<g mask="url(#mask0)">
</g>
</g>
</svg>
