<svg width="24" height="24" viewBox="0 0 24 24" fill="none" xmlns="http://www.w3.org/2000/svg">
<g id="01) Icons/Filled/pie-chart -fill">
<path id="&#240;&#159;&#142;&#168; Icon &#208;&#161;olor" fill-rule="evenodd" clip-rule="evenodd" d="M12.9345 11.9776H21.0835C21.6255 11.9776 22.0495 12.4496 21.9955 12.9886C21.4515 18.4146 16.5795 22.5666 10.8815 21.9366C6.29651 21.4306 2.56951 17.7036 2.06251 13.1186C1.43451 7.42059 5.58451 2.54759 11.0115 2.00459C11.5515 1.95059 12.0225 2.37359 12.0225 2.91559V11.0666C12.0225 11.5696 12.4305 11.9776 12.9345 11.9776ZM21.167 10.3331H14.5C14.04 10.3331 13.667 9.96109 13.667 9.50009V2.83309C13.667 2.37309 14.04 2.00009 14.5 2.00009C18.635 2.00009 22 5.36409 22 9.50009C22 9.96109 21.627 10.3331 21.167 10.3331Z" fill="#18203A"/>
<mask id="mask0" mask-type="alpha" maskUnits="userSpaceOnUse" x="1" y="2" width="22" height="20">
<path id="&#240;&#159;&#142;&#168; Icon &#208;&#161;olor_2" fill-rule="evenodd" clip-rule="evenodd" d="M12.9345 11.9776H21.0835C21.6255 11.9776 22.0495 12.4496 21.9955 12.9886C21.4515 18.4146 16.5795 22.5666 10.8815 21.9366C6.29651 21.4306 2.56951 17.7036 2.06251 13.1186C1.43451 7.42059 5.58451 2.54759 11.0115 2.00459C11.5515 1.95059 12.0225 2.37359 12.0225 2.91559V11.0666C12.0225 11.5696 12.4305 11.9776 12.9345 11.9776ZM21.167 10.3331H14.5C14.04 10.3331 13.667 9.96109 13.667 9.50009V2.83309C13.667 2.37309 14.04 2.00009 14.5 2.00009C18.635 2.00009 22 5.36409 22 9.50009C22 9.96109 21.627 10.3331 21.167 10.3331Z" fill="white"/>
</mask>
<g mask="url(#mask0)">
</g>
</g>
</svg>
