<svg width="24" height="24" viewBox="0 0 24 24" fill="none" xmlns="http://www.w3.org/2000/svg">
<g id="01) Icons/Filled/Pin">
<path id="Path" fill-rule="evenodd" clip-rule="evenodd" d="M7 14.1959C7 15.1547 9.35889 15.6634 11.8901 15.7347L11.8889 15.7497V19.4997C11.8889 20.1897 12.1627 21.9997 12.5 21.9997C12.8373 21.9997 13.1111 20.1897 13.1111 19.4997V15.7497L13.1099 15.7347C15.6411 15.6634 18 15.1547 18 14.1959C18 13.1784 17.0992 12.4359 15.5556 12.0359V5.56219C17.0992 5.02719 18 4.16594 18 3.55344C18 1.48219 7 1.48219 7 3.55344C7 4.22719 7.90078 5.06969 9.44444 5.58469V12.0359C7.90078 12.4372 7 13.1784 7 14.1959Z" fill="#18203A"/>
</g>
</svg>
