<svg width="24" height="24" viewBox="0 0 24 24" fill="none" xmlns="http://www.w3.org/2000/svg">
<g id="01) Icons/Filled/radio-button-on-fill">
<path id="&#240;&#159;&#142;&#168; Icon &#208;&#161;olor" fill-rule="evenodd" clip-rule="evenodd" d="M12 6.99988C9.243 6.99988 7 9.24288 7 11.9999C7 14.7569 9.243 16.9999 12 16.9999C14.757 16.9999 17 14.7569 17 11.9999C17 9.24288 14.757 6.99988 12 6.99988ZM12 19.9999C7.589 19.9999 4 16.4109 4 11.9999C4 7.58888 7.589 3.99988 12 3.99988C16.411 3.99988 20 7.58888 20 11.9999C20 16.4109 16.411 19.9999 12 19.9999ZM12 1.99988C6.486 1.99988 2 6.48588 2 11.9999C2 17.5139 6.486 21.9999 12 21.9999C17.514 21.9999 22 17.5139 22 11.9999C22 6.48588 17.514 1.99988 12 1.99988Z" fill="#18203A"/>
<mask id="mask0" mask-type="alpha" maskUnits="userSpaceOnUse" x="2" y="1" width="20" height="21">
<path id="&#240;&#159;&#142;&#168; Icon &#208;&#161;olor_2" fill-rule="evenodd" clip-rule="evenodd" d="M12 6.99988C9.243 6.99988 7 9.24288 7 11.9999C7 14.7569 9.243 16.9999 12 16.9999C14.757 16.9999 17 14.7569 17 11.9999C17 9.24288 14.757 6.99988 12 6.99988ZM12 19.9999C7.589 19.9999 4 16.4109 4 11.9999C4 7.58888 7.589 3.99988 12 3.99988C16.411 3.99988 20 7.58888 20 11.9999C20 16.4109 16.411 19.9999 12 19.9999ZM12 1.99988C6.486 1.99988 2 6.48588 2 11.9999C2 17.5139 6.486 21.9999 12 21.9999C17.514 21.9999 22 17.5139 22 11.9999C22 6.48588 17.514 1.99988 12 1.99988Z" fill="white"/>
</mask>
<g mask="url(#mask0)">
</g>
</g>
</svg>
