<svg width="24" height="24" viewBox="0 0 24 24" fill="none" xmlns="http://www.w3.org/2000/svg">
<g id="01) Icons/Filled/rewind-left-fill">
<path id="&#240;&#159;&#142;&#168; Icon &#208;&#161;olor" fill-rule="evenodd" clip-rule="evenodd" d="M18.4502 6.20121C17.7162 5.85621 16.8492 5.95821 16.2412 6.46121L11.5002 10.3772V7.78721C11.5002 7.11421 11.0972 6.50721 10.4502 6.20121C9.7162 5.85621 8.8492 5.95821 8.2412 6.46121L3.1412 10.6742C2.7342 11.0102 2.5002 11.4942 2.5002 12.0002C2.5002 12.5062 2.7342 12.9902 3.1412 13.3262L8.2412 17.5402C8.6092 17.8442 9.0732 18.0012 9.5442 18.0012C9.8512 18.0012 10.1612 17.9342 10.4502 17.7992C11.0972 17.4932 11.5002 16.8862 11.5002 16.2132V13.6222L16.2412 17.5402C16.6092 17.8442 17.0732 18.0012 17.5442 18.0012C17.8512 18.0012 18.1612 17.9342 18.4502 17.7992C19.0972 17.4932 19.5002 16.8862 19.5002 16.2132V7.78721C19.5002 7.11421 19.0972 6.50721 18.4502 6.20121Z" fill="#18203A"/>
<mask id="mask0" mask-type="alpha" maskUnits="userSpaceOnUse" x="2" y="5" width="18" height="14">
<path id="&#240;&#159;&#142;&#168; Icon &#208;&#161;olor_2" fill-rule="evenodd" clip-rule="evenodd" d="M18.4502 6.20121C17.7162 5.85621 16.8492 5.95821 16.2412 6.46121L11.5002 10.3772V7.78721C11.5002 7.11421 11.0972 6.50721 10.4502 6.20121C9.7162 5.85621 8.8492 5.95821 8.2412 6.46121L3.1412 10.6742C2.7342 11.0102 2.5002 11.4942 2.5002 12.0002C2.5002 12.5062 2.7342 12.9902 3.1412 13.3262L8.2412 17.5402C8.6092 17.8442 9.0732 18.0012 9.5442 18.0012C9.8512 18.0012 10.1612 17.9342 10.4502 17.7992C11.0972 17.4932 11.5002 16.8862 11.5002 16.2132V13.6222L16.2412 17.5402C16.6092 17.8442 17.0732 18.0012 17.5442 18.0012C17.8512 18.0012 18.1612 17.9342 18.4502 17.7992C19.0972 17.4932 19.5002 16.8862 19.5002 16.2132V7.78721C19.5002 7.11421 19.0972 6.50721 18.4502 6.20121Z" fill="white"/>
</mask>
<g mask="url(#mask0)">
</g>
</g>
</svg>
