<svg width="24" height="24" viewBox="0 0 24 24" fill="none" xmlns="http://www.w3.org/2000/svg">
<g id="01) Icons/Filled/save-fill">
<path id="&#240;&#159;&#142;&#168; Icon &#208;&#161;olor" fill-rule="evenodd" clip-rule="evenodd" d="M15.2921 3.878L20.1211 8.707C20.6831 9.269 21.0001 10.033 21.0001 10.829V18C21.0001 19.657 19.6571 21 18.0001 21H16.0001V17C16.0001 15.897 15.1021 15 14.0001 15H10.0001C8.89711 15 8.00011 15.897 8.00011 17V21H6.00011C4.34311 21 3.00011 19.657 3.00011 18V6C3.00011 4.343 4.34311 3 6.00011 3H8.00011V10C8.00011 10.552 8.44711 11 9.00011 11H15.0001C15.5531 11 16.0001 10.552 16.0001 10C16.0001 9.448 15.5531 9 15.0001 9H10.0001V3H13.1721C13.9671 3 14.7301 3.316 15.2921 3.878ZM10 17H14L14.001 21H10V17Z" fill="#18203A"/>
<mask id="mask0" mask-type="alpha" maskUnits="userSpaceOnUse" x="3" y="3" width="19" height="18">
<path id="&#240;&#159;&#142;&#168; Icon &#208;&#161;olor_2" fill-rule="evenodd" clip-rule="evenodd" d="M15.2921 3.878L20.1211 8.707C20.6831 9.269 21.0001 10.033 21.0001 10.829V18C21.0001 19.657 19.6571 21 18.0001 21H16.0001V17C16.0001 15.897 15.1021 15 14.0001 15H10.0001C8.89711 15 8.00011 15.897 8.00011 17V21H6.00011C4.34311 21 3.00011 19.657 3.00011 18V6C3.00011 4.343 4.34311 3 6.00011 3H8.00011V10C8.00011 10.552 8.44711 11 9.00011 11H15.0001C15.5531 11 16.0001 10.552 16.0001 10C16.0001 9.448 15.5531 9 15.0001 9H10.0001V3H13.1721C13.9671 3 14.7301 3.316 15.2921 3.878ZM10 17H14L14.001 21H10V17Z" fill="white"/>
</mask>
<g mask="url(#mask0)">
</g>
</g>
</svg>
