<svg width="24" height="24" viewBox="0 0 24 24" fill="none" xmlns="http://www.w3.org/2000/svg">
<g id="01) Icons/Filled/shield-fill">
<path id="&#240;&#159;&#142;&#168; Icon &#208;&#161;olor" fill-rule="evenodd" clip-rule="evenodd" d="M12 21.851C11.661 21.851 11.322 21.767 11.021 21.597L10.718 21.426C5.957 18.748 3 13.692 3 8.22998V8.08498C3 7.36598 3.39 6.69798 4.018 6.34298L11.02 2.40498C11.625 2.06498 12.376 2.06398 12.979 2.40398L19.98 6.34198C20.61 6.69798 21 7.36598 21 8.08498V8.22998C21 13.692 18.043 18.748 13.282 21.426L12.98 21.596C12.678 21.766 12.339 21.851 12 21.851Z" fill="#18203A"/>
<mask id="mask0" mask-type="alpha" maskUnits="userSpaceOnUse" x="3" y="2" width="18" height="20">
<path id="&#240;&#159;&#142;&#168; Icon &#208;&#161;olor_2" fill-rule="evenodd" clip-rule="evenodd" d="M12 21.851C11.661 21.851 11.322 21.767 11.021 21.597L10.718 21.426C5.957 18.748 3 13.692 3 8.22998V8.08498C3 7.36598 3.39 6.69798 4.018 6.34298L11.02 2.40498C11.625 2.06498 12.376 2.06398 12.979 2.40398L19.98 6.34198C20.61 6.69798 21 7.36598 21 8.08498V8.22998C21 13.692 18.043 18.748 13.282 21.426L12.98 21.596C12.678 21.766 12.339 21.851 12 21.851Z" fill="white"/>
</mask>
<g mask="url(#mask0)">
</g>
</g>
</svg>
