<svg width="24" height="24" viewBox="0 0 24 24" fill="none" xmlns="http://www.w3.org/2000/svg">
<g id="01) Icons/Filled/shield-off-fill">
<path id="&#240;&#159;&#142;&#168; Icon &#208;&#161;olor" fill-rule="evenodd" clip-rule="evenodd" d="M18.8389 16.0112C20.2259 13.6972 20.9999 11.0172 20.9999 8.23022V8.08522C20.9999 7.36522 20.6099 6.69822 19.9809 6.34222L12.9799 2.40422C12.3759 2.06422 11.6249 2.06522 11.0199 2.40522L7.31591 4.48822L18.8389 16.0112ZM3.73141 6.56002C3.28041 6.93602 3.00041 7.48702 3.00041 8.08502V8.23002C3.00041 13.692 5.95741 18.748 10.7174 21.426L11.0204 21.597C11.3224 21.767 11.6614 21.851 12.0004 21.851C12.3384 21.851 12.6774 21.766 12.9804 21.596L13.2824 21.426C14.4044 20.795 15.4214 20.028 16.3294 19.158L3.73141 6.56002ZM3.29301 3.29342C3.68401 2.90242 4.31601 2.90242 4.70701 3.29342L20.707 19.2934C21.098 19.6844 21.098 20.3164 20.707 20.7074C20.512 20.9024 20.256 21.0004 20 21.0004C19.744 21.0004 19.488 20.9024 19.293 20.7074L3.29301 4.70742C2.90201 4.31642 2.90201 3.68442 3.29301 3.29342Z" fill="#18203A"/>
<mask id="mask0" mask-type="alpha" maskUnits="userSpaceOnUse" x="2" y="2" width="20" height="20">
<path id="&#240;&#159;&#142;&#168; Icon &#208;&#161;olor_2" fill-rule="evenodd" clip-rule="evenodd" d="M18.8389 16.0112C20.2259 13.6972 20.9999 11.0172 20.9999 8.23022V8.08522C20.9999 7.36522 20.6099 6.69822 19.9809 6.34222L12.9799 2.40422C12.3759 2.06422 11.6249 2.06522 11.0199 2.40522L7.31591 4.48822L18.8389 16.0112ZM3.73141 6.56002C3.28041 6.93602 3.00041 7.48702 3.00041 8.08502V8.23002C3.00041 13.692 5.95741 18.748 10.7174 21.426L11.0204 21.597C11.3224 21.767 11.6614 21.851 12.0004 21.851C12.3384 21.851 12.6774 21.766 12.9804 21.596L13.2824 21.426C14.4044 20.795 15.4214 20.028 16.3294 19.158L3.73141 6.56002ZM3.29301 3.29342C3.68401 2.90242 4.31601 2.90242 4.70701 3.29342L20.707 19.2934C21.098 19.6844 21.098 20.3164 20.707 20.7074C20.512 20.9024 20.256 21.0004 20 21.0004C19.744 21.0004 19.488 20.9024 19.293 20.7074L3.29301 4.70742C2.90201 4.31642 2.90201 3.68442 3.29301 3.29342Z" fill="white"/>
</mask>
<g mask="url(#mask0)">
</g>
</g>
</svg>
