<svg width="24" height="24" viewBox="0 0 24 24" fill="none" xmlns="http://www.w3.org/2000/svg">
<g id="01) Icons/Filled/shopping-bag-fill">
<path id="&#240;&#159;&#142;&#168; Icon &#208;&#161;olor" fill-rule="evenodd" clip-rule="evenodd" d="M6.4141 7L8.1211 5.293C8.3081 5.107 8.5651 5 8.8281 5H15.1721C15.4351 5 15.6921 5.107 15.8791 5.293L17.5861 7H6.4141ZM12.0001 16C9.7941 16 8.0001 14.206 8.0001 12C8.0001 11.448 8.4471 11 9.0001 11C9.5531 11 10.0001 11.448 10.0001 12C10.0001 13.103 10.8971 14 12.0001 14C13.1021 14 14.0001 13.103 14.0001 12C14.0001 11.448 14.4471 11 15.0001 11C15.5531 11 16.0001 11.448 16.0001 12C16.0001 14.206 14.2061 16 12.0001 16ZM20.1211 6.707L17.2931 3.879C16.7271 3.312 15.9731 3 15.1721 3H8.8281C8.0271 3 7.2731 3.312 6.7071 3.879L3.8791 6.707C3.3121 7.273 3.0001 8.027 3.0001 8.829V18C3.0001 19.654 4.3461 21 6.0001 21H18.0001C19.6541 21 21.0001 19.654 21.0001 18V8.829C21.0001 8.027 20.6871 7.273 20.1211 6.707Z" fill="#18203A"/>
<mask id="mask0" mask-type="alpha" maskUnits="userSpaceOnUse" x="3" y="3" width="18" height="18">
<path id="&#240;&#159;&#142;&#168; Icon &#208;&#161;olor_2" fill-rule="evenodd" clip-rule="evenodd" d="M6.4141 7L8.1211 5.293C8.3081 5.107 8.5651 5 8.8281 5H15.1721C15.4351 5 15.6921 5.107 15.8791 5.293L17.5861 7H6.4141ZM12.0001 16C9.7941 16 8.0001 14.206 8.0001 12C8.0001 11.448 8.4471 11 9.0001 11C9.5531 11 10.0001 11.448 10.0001 12C10.0001 13.103 10.8971 14 12.0001 14C13.1021 14 14.0001 13.103 14.0001 12C14.0001 11.448 14.4471 11 15.0001 11C15.5531 11 16.0001 11.448 16.0001 12C16.0001 14.206 14.2061 16 12.0001 16ZM20.1211 6.707L17.2931 3.879C16.7271 3.312 15.9731 3 15.1721 3H8.8281C8.0271 3 7.2731 3.312 6.7071 3.879L3.8791 6.707C3.3121 7.273 3.0001 8.027 3.0001 8.829V18C3.0001 19.654 4.3461 21 6.0001 21H18.0001C19.6541 21 21.0001 19.654 21.0001 18V8.829C21.0001 8.027 20.6871 7.273 20.1211 6.707Z" fill="white"/>
</mask>
<g mask="url(#mask0)">
</g>
</g>
</svg>
