<svg width="24" height="24" viewBox="0 0 24 24" fill="none" xmlns="http://www.w3.org/2000/svg">
<g id="01) Icons/Filled/skip-back-fill">
<path id="&#240;&#159;&#142;&#168; Icon &#208;&#161;olor" fill-rule="evenodd" clip-rule="evenodd" d="M16.4502 6.20121C15.7162 5.85621 14.8482 5.95821 14.2412 6.46121L9.1412 10.6742C9.0882 10.7182 9.0472 10.7692 9.0002 10.8182V7.00021C9.0002 6.44721 8.5522 6.00021 8.0002 6.00021C7.4482 6.00021 7.0002 6.44721 7.0002 7.00021V17.0002C7.0002 17.5532 7.4482 18.0002 8.0002 18.0002C8.5522 18.0002 9.0002 17.5532 9.0002 17.0002V13.1812C9.0472 13.2302 9.0882 13.2822 9.1412 13.3262L14.2412 17.5402C14.6092 17.8442 15.0732 18.0012 15.5442 18.0012C15.8512 18.0012 16.1612 17.9342 16.4502 17.7992C17.0972 17.4932 17.5002 16.8862 17.5002 16.2132V7.78721C17.5002 7.11421 17.0972 6.50721 16.4502 6.20121Z" fill="#18203A"/>
<mask id="mask0" mask-type="alpha" maskUnits="userSpaceOnUse" x="7" y="5" width="11" height="14">
<path id="&#240;&#159;&#142;&#168; Icon &#208;&#161;olor_2" fill-rule="evenodd" clip-rule="evenodd" d="M16.4502 6.20121C15.7162 5.85621 14.8482 5.95821 14.2412 6.46121L9.1412 10.6742C9.0882 10.7182 9.0472 10.7692 9.0002 10.8182V7.00021C9.0002 6.44721 8.5522 6.00021 8.0002 6.00021C7.4482 6.00021 7.0002 6.44721 7.0002 7.00021V17.0002C7.0002 17.5532 7.4482 18.0002 8.0002 18.0002C8.5522 18.0002 9.0002 17.5532 9.0002 17.0002V13.1812C9.0472 13.2302 9.0882 13.2822 9.1412 13.3262L14.2412 17.5402C14.6092 17.8442 15.0732 18.0012 15.5442 18.0012C15.8512 18.0012 16.1612 17.9342 16.4502 17.7992C17.0972 17.4932 17.5002 16.8862 17.5002 16.2132V7.78721C17.5002 7.11421 17.0972 6.50721 16.4502 6.20121Z" fill="white"/>
</mask>
<g mask="url(#mask0)">
</g>
</g>
</svg>
