<svg width="24" height="24" viewBox="0 0 24 24" fill="none" xmlns="http://www.w3.org/2000/svg">
<g id="01) Icons/Filled/smartphone-fill">
<path id="&#240;&#159;&#142;&#168; Icon &#208;&#161;olor" fill-rule="evenodd" clip-rule="evenodd" d="M14.5 8.00067H9.5C8.947 8.00067 8.5 7.55367 8.5 7.00067C8.5 6.44767 8.947 6.00067 9.5 6.00067H14.5C15.053 6.00067 15.5 6.44767 15.5 7.00067C15.5 7.55367 15.053 8.00067 14.5 8.00067ZM12 18.0007C11.172 18.0007 10.5 17.3287 10.5 16.5007C10.5 15.6727 11.172 15.0007 12 15.0007C12.828 15.0007 13.5 15.6727 13.5 16.5007C13.5 17.3287 12.828 18.0007 12 18.0007ZM17 2.00067H7C5.346 2.00067 4 3.34667 4 5.00067V19.0007C4 20.6547 5.346 22.0007 7 22.0007H17C18.654 22.0007 20 20.6547 20 19.0007V5.00067C20 3.34667 18.654 2.00067 17 2.00067Z" fill="#18203A"/>
<mask id="mask0" mask-type="alpha" maskUnits="userSpaceOnUse" x="4" y="2" width="16" height="21">
<path id="&#240;&#159;&#142;&#168; Icon &#208;&#161;olor_2" fill-rule="evenodd" clip-rule="evenodd" d="M14.5 8.00067H9.5C8.947 8.00067 8.5 7.55367 8.5 7.00067C8.5 6.44767 8.947 6.00067 9.5 6.00067H14.5C15.053 6.00067 15.5 6.44767 15.5 7.00067C15.5 7.55367 15.053 8.00067 14.5 8.00067ZM12 18.0007C11.172 18.0007 10.5 17.3287 10.5 16.5007C10.5 15.6727 11.172 15.0007 12 15.0007C12.828 15.0007 13.5 15.6727 13.5 16.5007C13.5 17.3287 12.828 18.0007 12 18.0007ZM17 2.00067H7C5.346 2.00067 4 3.34667 4 5.00067V19.0007C4 20.6547 5.346 22.0007 7 22.0007H17C18.654 22.0007 20 20.6547 20 19.0007V5.00067C20 3.34667 18.654 2.00067 17 2.00067Z" fill="white"/>
</mask>
<g mask="url(#mask0)">
</g>
</g>
</svg>
