<svg width="24" height="24" viewBox="0 0 24 24" fill="none" xmlns="http://www.w3.org/2000/svg">
<g id="01) Icons/Filled/tv-fill">
<path id="&#240;&#159;&#142;&#168; Icon &#208;&#161;olor" fill-rule="evenodd" clip-rule="evenodd" d="M19 18.9999C19 19.5529 18.553 19.9999 18 19.9999H6C5.447 19.9999 5 19.5529 5 18.9999V11.9999C5 11.4469 5.447 10.9999 6 10.9999H18C18.553 10.9999 19 11.4469 19 11.9999V18.9999ZM18 5.99988H14.414L16.707 3.70688C17.098 3.31588 17.098 2.68388 16.707 2.29288C16.316 1.90188 15.684 1.90188 15.293 2.29288L12 5.58588L8.707 2.29288C8.316 1.90188 7.684 1.90188 7.293 2.29288C6.902 2.68388 6.902 3.31588 7.293 3.70688L9.586 5.99988H6C4.346 5.99988 3 7.34588 3 8.99988V18.9999C3 20.6539 4.346 21.9999 6 21.9999H18C19.654 21.9999 21 20.6539 21 18.9999V8.99988C21 7.34588 19.654 5.99988 18 5.99988Z" fill="#18203A"/>
<mask id="mask0" mask-type="alpha" maskUnits="userSpaceOnUse" x="3" y="1" width="18" height="21">
<path id="&#240;&#159;&#142;&#168; Icon &#208;&#161;olor_2" fill-rule="evenodd" clip-rule="evenodd" d="M19 18.9999C19 19.5529 18.553 19.9999 18 19.9999H6C5.447 19.9999 5 19.5529 5 18.9999V11.9999C5 11.4469 5.447 10.9999 6 10.9999H18C18.553 10.9999 19 11.4469 19 11.9999V18.9999ZM18 5.99988H14.414L16.707 3.70688C17.098 3.31588 17.098 2.68388 16.707 2.29288C16.316 1.90188 15.684 1.90188 15.293 2.29288L12 5.58588L8.707 2.29288C8.316 1.90188 7.684 1.90188 7.293 2.29288C6.902 2.68388 6.902 3.31588 7.293 3.70688L9.586 5.99988H6C4.346 5.99988 3 7.34588 3 8.99988V18.9999C3 20.6539 4.346 21.9999 6 21.9999H18C19.654 21.9999 21 20.6539 21 18.9999V8.99988C21 7.34588 19.654 5.99988 18 5.99988Z" fill="white"/>
</mask>
<g mask="url(#mask0)">
</g>
</g>
</svg>
