<svg width="24" height="24" viewBox="0 0 24 24" fill="none" xmlns="http://www.w3.org/2000/svg">
<g id="01) Icons/Filled/undo-fill">
<path id="&#240;&#159;&#142;&#168; Icon &#208;&#161;olor" fill-rule="evenodd" clip-rule="evenodd" d="M20.2207 21C19.7597 21 19.3587 20.685 19.2487 20.237C18.3597 16.588 15.2287 13.952 11.4537 13.553V14.674C11.4537 15.38 11.0347 16.009 10.3617 16.314C9.62969 16.647 8.77769 16.527 8.18469 16.01L3.11769 11.586C2.72569 11.242 2.49969 10.755 2.49969 10.25C2.49969 9.74498 2.72569 9.25798 3.11769 8.91398L8.18469 4.48998C8.77769 3.97298 9.62969 3.85298 10.3617 4.18598C11.0347 4.49098 11.4537 5.11998 11.4537 5.82598V7.04398C17.0777 7.53698 21.4997 12.15 21.4997 17.75C21.4997 18.56 21.3967 19.396 21.1927 20.236C21.0837 20.685 20.6827 21 20.2207 21Z" fill="#18203A"/>
<mask id="mask0" mask-type="alpha" maskUnits="userSpaceOnUse" x="2" y="3" width="20" height="18">
<path id="&#240;&#159;&#142;&#168; Icon &#208;&#161;olor_2" fill-rule="evenodd" clip-rule="evenodd" d="M20.2207 21C19.7597 21 19.3587 20.685 19.2487 20.237C18.3597 16.588 15.2287 13.952 11.4537 13.553V14.674C11.4537 15.38 11.0347 16.009 10.3617 16.314C9.62969 16.647 8.77769 16.527 8.18469 16.01L3.11769 11.586C2.72569 11.242 2.49969 10.755 2.49969 10.25C2.49969 9.74498 2.72569 9.25798 3.11769 8.91398L8.18469 4.48998C8.77769 3.97298 9.62969 3.85298 10.3617 4.18598C11.0347 4.49098 11.4537 5.11998 11.4537 5.82598V7.04398C17.0777 7.53698 21.4997 12.15 21.4997 17.75C21.4997 18.56 21.3967 19.396 21.1927 20.236C21.0837 20.685 20.6827 21 20.2207 21Z" fill="white"/>
</mask>
<g mask="url(#mask0)">
</g>
</g>
</svg>
