<svg width="24" height="24" viewBox="0 0 24 24" fill="none" xmlns="http://www.w3.org/2000/svg">
<g id="01) Icons/Filled/video-off-fill">
<path id="&#240;&#159;&#142;&#168; Icon &#208;&#161;olor" fill-rule="evenodd" clip-rule="evenodd" d="M15 13.5859L17 15.5859L20.707 19.2929C21.098 19.6839 21.098 20.3159 20.707 20.7069C20.512 20.9019 20.256 20.9999 20 20.9999C19.744 20.9999 19.488 20.9019 19.293 20.7069L16.386 17.7999L14.931 16.3449L5.586 6.99988L3.826 5.23988L3.293 4.70688C2.902 4.31588 2.902 3.68388 3.293 3.29288C3.684 2.90188 4.316 2.90188 4.707 3.29288L6.414 4.99988L8.414 6.99988L15 13.5859ZM21.0117 7.14538C20.3857 6.87338 19.6597 6.99138 19.1607 7.45138L16.9997 9.45138V7.99938C16.9997 6.34538 15.6547 4.99938 13.9997 4.99938H7.8277L9.1207 6.29238L15.7067 12.8784L17.7067 14.8784L19.7177 16.8894C19.9097 16.9614 20.1137 16.9994 20.3197 16.9994C20.5527 16.9994 20.7877 16.9524 21.0117 16.8544C21.6207 16.5884 21.9997 16.0194 21.9997 15.3704V8.62938C21.9997 7.98038 21.6207 7.41138 21.0117 7.14538ZM14.2236 17.0517L4.8786 7.70668L3.1196 5.94768L2.9736 5.80168C2.3786 6.35068 1.9996 7.12868 1.9996 7.99968V15.9997C1.9996 17.6547 3.3456 18.9997 4.9996 18.9997H13.9996C14.6166 18.9997 15.1886 18.8127 15.6646 18.4927L14.2236 17.0517Z" fill="#18203A"/>
<mask id="mask0" mask-type="alpha" maskUnits="userSpaceOnUse" x="1" y="2" width="21" height="19">
<path id="&#240;&#159;&#142;&#168; Icon &#208;&#161;olor_2" fill-rule="evenodd" clip-rule="evenodd" d="M15 13.5859L17 15.5859L20.707 19.2929C21.098 19.6839 21.098 20.3159 20.707 20.7069C20.512 20.9019 20.256 20.9999 20 20.9999C19.744 20.9999 19.488 20.9019 19.293 20.7069L16.386 17.7999L14.931 16.3449L5.586 6.99988L3.826 5.23988L3.293 4.70688C2.902 4.31588 2.902 3.68388 3.293 3.29288C3.684 2.90188 4.316 2.90188 4.707 3.29288L6.414 4.99988L8.414 6.99988L15 13.5859ZM21.0117 7.14538C20.3857 6.87338 19.6597 6.99138 19.1607 7.45138L16.9997 9.45138V7.99938C16.9997 6.34538 15.6547 4.99938 13.9997 4.99938H7.8277L9.1207 6.29238L15.7067 12.8784L17.7067 14.8784L19.7177 16.8894C19.9097 16.9614 20.1137 16.9994 20.3197 16.9994C20.5527 16.9994 20.7877 16.9524 21.0117 16.8544C21.6207 16.5884 21.9997 16.0194 21.9997 15.3704V8.62938C21.9997 7.98038 21.6207 7.41138 21.0117 7.14538ZM14.2236 17.0517L4.8786 7.70668L3.1196 5.94768L2.9736 5.80168C2.3786 6.35068 1.9996 7.12868 1.9996 7.99968V15.9997C1.9996 17.6547 3.3456 18.9997 4.9996 18.9997H13.9996C14.6166 18.9997 15.1886 18.8127 15.6646 18.4927L14.2236 17.0517Z" fill="white"/>
</mask>
<g mask="url(#mask0)">
</g>
</g>
</svg>
