<svg width="24" height="24" viewBox="0 0 24 24" fill="none" xmlns="http://www.w3.org/2000/svg">
<g id="01) Icons/Filled/video-fill">
<path id="&#240;&#159;&#142;&#168; Icon &#208;&#161;olor" fill-rule="evenodd" clip-rule="evenodd" d="M21.0117 7.14539C20.3857 6.87339 19.6597 6.99139 19.1607 7.45139L16.9997 9.45139V7.99939C16.9997 6.34539 15.6547 4.99939 13.9997 4.99939H4.99969C3.34569 4.99939 1.99969 6.34539 1.99969 7.99939V15.9994C1.99969 17.6544 3.34569 18.9994 4.99969 18.9994H13.9997C15.6547 18.9994 16.9997 17.6544 16.9997 15.9994V14.5484L19.1607 16.5474C19.4817 16.8444 19.8967 16.9994 20.3197 16.9994C20.5527 16.9994 20.7877 16.9524 21.0117 16.8544C21.6207 16.5884 21.9997 16.0194 21.9997 15.3704V8.62939C21.9997 7.98039 21.6207 7.41139 21.0117 7.14539Z" fill="#18203A"/>
<mask id="mask0" mask-type="alpha" maskUnits="userSpaceOnUse" x="1" y="4" width="21" height="15">
<path id="&#240;&#159;&#142;&#168; Icon &#208;&#161;olor_2" fill-rule="evenodd" clip-rule="evenodd" d="M21.0117 7.14539C20.3857 6.87339 19.6597 6.99139 19.1607 7.45139L16.9997 9.45139V7.99939C16.9997 6.34539 15.6547 4.99939 13.9997 4.99939H4.99969C3.34569 4.99939 1.99969 6.34539 1.99969 7.99939V15.9994C1.99969 17.6544 3.34569 18.9994 4.99969 18.9994H13.9997C15.6547 18.9994 16.9997 17.6544 16.9997 15.9994V14.5484L19.1607 16.5474C19.4817 16.8444 19.8967 16.9994 20.3197 16.9994C20.5527 16.9994 20.7877 16.9524 21.0117 16.8544C21.6207 16.5884 21.9997 16.0194 21.9997 15.3704V8.62939C21.9997 7.98039 21.6207 7.41139 21.0117 7.14539Z" fill="white"/>
</mask>
<g mask="url(#mask0)">
</g>
</g>
</svg>
