<svg width="24" height="24" viewBox="0 0 24 24" fill="none" xmlns="http://www.w3.org/2000/svg">
<g id="01) Icons/Filled/volume-up-fill">
<path id="&#240;&#159;&#142;&#168; Icon &#208;&#161;olor" fill-rule="evenodd" clip-rule="evenodd" d="M13.4343 3.17517C13.7403 2.96517 14.1373 2.94117 14.4663 3.11517C14.7943 3.28817 15.0003 3.62917 15.0003 4.00017V20.0002C15.0003 20.3712 14.7943 20.7122 14.4663 20.8852C14.3203 20.9622 14.1593 21.0002 14.0003 21.0002C13.8013 21.0002 13.6043 20.9412 13.4343 20.8252L7.0233 16.4282H2.0003C1.4473 16.4282 1.0003 15.9812 1.0003 15.4282V8.57117C1.0003 8.01817 1.4473 7.57117 2.0003 7.57117H7.0233L13.4343 3.17517ZM19.6377 5.22947C19.2127 4.87747 18.5817 4.93647 18.2297 5.36247C17.8777 5.78747 17.9367 6.41747 18.3627 6.77047C20.0627 8.17947 20.9997 10.0365 20.9997 12.0005C20.9997 13.9635 20.0627 15.8205 18.3627 17.2295C17.9367 17.5825 17.8777 18.2125 18.2297 18.6375C18.4277 18.8765 18.7127 19.0005 19.0007 19.0005C19.2247 19.0005 19.4507 18.9245 19.6377 18.7705C21.8057 16.9745 22.9997 14.5695 22.9997 12.0005C22.9997 9.43047 21.8057 7.02547 19.6377 5.22947ZM18.2793 8.37297C17.9323 7.94297 17.3033 7.87597 16.8733 8.22097C16.4433 8.56697 16.3743 9.19597 16.7203 9.62697C17.7563 10.913 17.7563 13.087 16.7203 14.373C16.3743 14.804 16.4433 15.433 16.8733 15.779C17.0583 15.928 17.2793 16 17.4993 16C17.7913 16 18.0813 15.872 18.2793 15.627C19.9153 13.593 19.9153 10.407 18.2793 8.37297Z" fill="#18203A"/>
<mask id="mask0" mask-type="alpha" maskUnits="userSpaceOnUse" x="1" y="2" width="22" height="20">
<path id="&#240;&#159;&#142;&#168; Icon &#208;&#161;olor_2" fill-rule="evenodd" clip-rule="evenodd" d="M13.4343 3.17517C13.7403 2.96517 14.1373 2.94117 14.4663 3.11517C14.7943 3.28817 15.0003 3.62917 15.0003 4.00017V20.0002C15.0003 20.3712 14.7943 20.7122 14.4663 20.8852C14.3203 20.9622 14.1593 21.0002 14.0003 21.0002C13.8013 21.0002 13.6043 20.9412 13.4343 20.8252L7.0233 16.4282H2.0003C1.4473 16.4282 1.0003 15.9812 1.0003 15.4282V8.57117C1.0003 8.01817 1.4473 7.57117 2.0003 7.57117H7.0233L13.4343 3.17517ZM19.6377 5.22947C19.2127 4.87747 18.5817 4.93647 18.2297 5.36247C17.8777 5.78747 17.9367 6.41747 18.3627 6.77047C20.0627 8.17947 20.9997 10.0365 20.9997 12.0005C20.9997 13.9635 20.0627 15.8205 18.3627 17.2295C17.9367 17.5825 17.8777 18.2125 18.2297 18.6375C18.4277 18.8765 18.7127 19.0005 19.0007 19.0005C19.2247 19.0005 19.4507 18.9245 19.6377 18.7705C21.8057 16.9745 22.9997 14.5695 22.9997 12.0005C22.9997 9.43047 21.8057 7.02547 19.6377 5.22947ZM18.2793 8.37297C17.9323 7.94297 17.3033 7.87597 16.8733 8.22097C16.4433 8.56697 16.3743 9.19597 16.7203 9.62697C17.7563 10.913 17.7563 13.087 16.7203 14.373C16.3743 14.804 16.4433 15.433 16.8733 15.779C17.0583 15.928 17.2793 16 17.4993 16C17.7913 16 18.0813 15.872 18.2793 15.627C19.9153 13.593 19.9153 10.407 18.2793 8.37297Z" fill="white"/>
</mask>
<g mask="url(#mask0)">
</g>
</g>
</svg>
