<svg width="24" height="24" viewBox="0 0 24 24" fill="none" xmlns="http://www.w3.org/2000/svg">
<g id="01) Icons/Filled/volume-fill">
<path id="&#240;&#159;&#142;&#168; Icon &#208;&#161;olor" fill-rule="evenodd" clip-rule="evenodd" d="M17 20.9999C16.802 20.9999 16.604 20.9409 16.435 20.8249L10.023 16.4289H5C4.448 16.4289 4 15.9809 4 15.4289V8.57093C4 8.01893 4.448 7.57093 5 7.57093H10.023L16.435 3.17493C16.74 2.96493 17.137 2.94093 17.466 3.11493C17.794 3.28793 18 3.62893 18 3.99993V19.9999C18 20.3709 17.794 20.7119 17.466 20.8849C17.32 20.9619 17.16 20.9999 17 20.9999Z" fill="#18203A"/>
<mask id="mask0" mask-type="alpha" maskUnits="userSpaceOnUse" x="4" y="2" width="14" height="19">
<path id="&#240;&#159;&#142;&#168; Icon &#208;&#161;olor_2" fill-rule="evenodd" clip-rule="evenodd" d="M17 20.9999C16.802 20.9999 16.604 20.9409 16.435 20.8249L10.023 16.4289H5C4.448 16.4289 4 15.9809 4 15.4289V8.57093C4 8.01893 4.448 7.57093 5 7.57093H10.023L16.435 3.17493C16.74 2.96493 17.137 2.94093 17.466 3.11493C17.794 3.28793 18 3.62893 18 3.99993V19.9999C18 20.3709 17.794 20.7119 17.466 20.8849C17.32 20.9619 17.16 20.9999 17 20.9999Z" fill="white"/>
</mask>
<g mask="url(#mask0)">
</g>
</g>
</svg>
