<svg width="24" height="24" viewBox="0 0 24 24" fill="none" xmlns="http://www.w3.org/2000/svg">
<g id="01) Icons/Filled/volume-down-fill">
<path id="&#240;&#159;&#142;&#168; Icon &#208;&#161;olor" fill-rule="evenodd" clip-rule="evenodd" d="M15.4343 3.17517C15.7403 2.96517 16.1373 2.94117 16.4663 3.11517C16.7943 3.28817 17.0003 3.62917 17.0003 4.00017V20.0002C17.0003 20.3712 16.7943 20.7122 16.4663 20.8852C16.3203 20.9622 16.1593 21.0002 16.0003 21.0002C15.8013 21.0002 15.6043 20.9412 15.4343 20.8252L9.0233 16.4282H4.00031C3.44731 16.4282 3.00031 15.9812 3.00031 15.4282V8.57117C3.00031 8.01817 3.44731 7.57117 4.00031 7.57117H9.0233L15.4343 3.17517ZM19.3733 8.22097C19.8023 7.87597 20.4333 7.94297 20.7793 8.37297C22.4153 10.407 22.4153 13.593 20.7793 15.627C20.5813 15.872 20.2913 16 19.9993 16C19.7793 16 19.5583 15.928 19.3733 15.779C18.9433 15.433 18.8743 14.804 19.2203 14.373C20.2563 13.087 20.2563 10.913 19.2203 9.62697C18.8743 9.19597 18.9433 8.56697 19.3733 8.22097Z" fill="#18203A"/>
<mask id="mask0" mask-type="alpha" maskUnits="userSpaceOnUse" x="3" y="2" width="20" height="20">
<path id="&#240;&#159;&#142;&#168; Icon &#208;&#161;olor_2" fill-rule="evenodd" clip-rule="evenodd" d="M15.4343 3.17517C15.7403 2.96517 16.1373 2.94117 16.4663 3.11517C16.7943 3.28817 17.0003 3.62917 17.0003 4.00017V20.0002C17.0003 20.3712 16.7943 20.7122 16.4663 20.8852C16.3203 20.9622 16.1593 21.0002 16.0003 21.0002C15.8013 21.0002 15.6043 20.9412 15.4343 20.8252L9.0233 16.4282H4.00031C3.44731 16.4282 3.00031 15.9812 3.00031 15.4282V8.57117C3.00031 8.01817 3.44731 7.57117 4.00031 7.57117H9.0233L15.4343 3.17517ZM19.3733 8.22097C19.8023 7.87597 20.4333 7.94297 20.7793 8.37297C22.4153 10.407 22.4153 13.593 20.7793 15.627C20.5813 15.872 20.2913 16 19.9993 16C19.7793 16 19.5583 15.928 19.3733 15.779C18.9433 15.433 18.8743 14.804 19.2203 14.373C20.2563 13.087 20.2563 10.913 19.2203 9.62697C18.8743 9.19597 18.9433 8.56697 19.3733 8.22097Z" fill="white"/>
</mask>
<g mask="url(#mask0)">
</g>
</g>
</svg>
