<svg width="24" height="24" viewBox="0 0 24 24" fill="none" xmlns="http://www.w3.org/2000/svg">
<path fill-rule="evenodd" clip-rule="evenodd" d="M16.6162 6.21296C16.1822 5.87096 15.5542 5.94896 15.2132 6.38396L8.15821 15.392L4.77921 11.195C4.43121 10.766 3.80321 10.696 3.37321 11.043C2.94221 11.39 2.87521 12.02 3.22021 12.449L7.38921 17.627C7.58021 17.863 7.86621 18 8.16921 18H8.17621C8.48021 17.998 8.76821 17.857 8.95621 17.616L16.7872 7.61596C17.1282 7.18196 17.0522 6.55296 16.6162 6.21296ZM21.6162 6.21296C21.1812 5.87096 20.5542 5.94896 20.2132 6.38396L13.1582 15.392L12.5542 14.643L11.2892 16.26L12.3892 17.627C12.5802 17.863 12.8662 18 13.1692 18H13.1762C13.4802 17.998 13.7682 17.857 13.9562 17.616L21.7872 7.61596C22.1282 7.18196 22.0522 6.55296 21.6162 6.21296ZM9.97991 11.4446L8.71291 13.0606L8.22091 12.4496C7.87491 12.0196 7.94191 11.3896 8.37291 11.0426C8.80391 10.6966 9.43291 10.7656 9.77891 11.1956L9.97991 11.4446Z" fill="#18203A"/>
<mask id="mask0" mask-type="alpha" maskUnits="userSpaceOnUse" x="2" y="5" width="21" height="13">
<path fill-rule="evenodd" clip-rule="evenodd" d="M16.6162 6.21296C16.1822 5.87096 15.5542 5.94896 15.2132 6.38396L8.15821 15.392L4.77921 11.195C4.43121 10.766 3.80321 10.696 3.37321 11.043C2.94221 11.39 2.87521 12.02 3.22021 12.449L7.38921 17.627C7.58021 17.863 7.86621 18 8.16921 18H8.17621C8.48021 17.998 8.76821 17.857 8.95621 17.616L16.7872 7.61596C17.1282 7.18196 17.0522 6.55296 16.6162 6.21296ZM21.6162 6.21296C21.1812 5.87096 20.5542 5.94896 20.2132 6.38396L13.1582 15.392L12.5542 14.643L11.2892 16.26L12.3892 17.627C12.5802 17.863 12.8662 18 13.1692 18H13.1762C13.4802 17.998 13.7682 17.857 13.9562 17.616L21.7872 7.61596C22.1282 7.18196 22.0522 6.55296 21.6162 6.21296ZM9.97991 11.4446L8.71291 13.0606L8.22091 12.4496C7.87491 12.0196 7.94191 11.3896 8.37291 11.0426C8.80391 10.6966 9.43291 10.7656 9.77891 11.1956L9.97991 11.4446Z" fill="white"/>
</mask>
<g mask="url(#mask0)">
</g>
</svg>
