<svg width="24" height="24" viewBox="0 0 24 24" fill="none" xmlns="http://www.w3.org/2000/svg">
<path fill-rule="evenodd" clip-rule="evenodd" d="M19.168 6.46682L17.73 7.85682C17.536 8.04382 17.285 8.13782 17.035 8.13782C16.773 8.13782 16.512 8.03482 16.316 7.83182C15.933 7.43582 15.943 6.80182 16.341 6.41882L17.779 5.02982C18.176 4.64682 18.812 4.65682 19.192 5.05382C19.576 5.44982 19.565 6.08382 19.168 6.46682ZM7.684 7.83182C7.488 8.03482 7.227 8.13782 6.965 8.13782C6.715 8.13782 6.464 8.04482 6.27 7.85782L4.831 6.46782C4.434 6.08382 4.423 5.44982 4.807 5.05382C5.191 4.65682 5.823 4.64482 6.221 5.02882L7.66 6.41782C8.057 6.80182 8.068 7.43582 7.684 7.83182ZM6 11.9998C6 12.5528 5.552 12.9998 5 12.9998H3C2.448 12.9998 2 12.5528 2 11.9998C2 11.4468 2.448 10.9998 3 10.9998H5C5.552 10.9998 6 11.4468 6 11.9998ZM22 11.9998C22 12.5528 21.553 12.9998 21 12.9998H19C18.447 12.9998 18 12.5528 18 11.9998C18 11.4468 18.447 10.9998 19 10.9998H21C21.553 10.9998 22 11.4468 22 11.9998ZM11 4.99982V2.99982C11 2.44682 11.448 1.99982 12 1.99982C12.552 1.99982 13 2.44682 13 2.99982V4.99982C13 5.55282 12.552 5.99982 12 5.99982C11.448 5.99982 11 5.55282 11 4.99982ZM13.501 14.5928C13.191 14.7718 13 15.1028 13 15.4598V19.9998H11V15.4598C11 15.1028 10.809 14.7718 10.499 14.5928C9.574 14.0618 9 13.0678 9 11.9998C9 10.3458 10.346 8.99982 12 8.99982C13.654 8.99982 15 10.3458 15 11.9998C15 13.0678 14.426 14.0618 13.501 14.5928ZM12 6.99982C9.243 6.99982 7 9.24282 7 11.9998C7 13.5788 7.753 15.0618 9 15.9958V19.9998C9 21.1028 9.897 21.9998 11 21.9998H13C14.103 21.9998 15 21.1028 15 19.9998V15.9958C16.246 15.0618 17 13.5788 17 11.9998C17 9.24282 14.757 6.99982 12 6.99982Z" fill="#18203A"/>
</svg>
