<svg width="24" height="24" viewBox="0 0 24 24" fill="none" xmlns="http://www.w3.org/2000/svg">
<path fill-rule="evenodd" clip-rule="evenodd" d="M9.86332 18C9.58732 18 9.32332 17.886 9.13432 17.685L4.27132 12.506C3.89232 12.104 3.91332 11.471 4.31532 11.093C4.71832 10.715 5.35132 10.735 5.72832 11.137L9.85332 15.528L18.2613 6.32599C18.6353 5.91699 19.2673 5.88999 19.6753 6.26199C20.0823 6.63399 20.1103 7.26699 19.7383 7.67399L10.6013 17.674C10.4143 17.88 10.1483 17.998 9.87032 18H9.86332Z" fill="#18203A"/>
<mask id="mask0" mask-type="alpha" maskUnits="userSpaceOnUse" x="4" y="6" width="16" height="12">
<path fill-rule="evenodd" clip-rule="evenodd" d="M9.86332 18C9.58732 18 9.32332 17.886 9.13432 17.685L4.27132 12.506C3.89232 12.104 3.91332 11.471 4.31532 11.093C4.71832 10.715 5.35132 10.735 5.72832 11.137L9.85332 15.528L18.2613 6.32599C18.6353 5.91699 19.2673 5.88999 19.6753 6.26199C20.0823 6.63399 20.1103 7.26699 19.7383 7.67399L10.6013 17.674C10.4143 17.88 10.1483 17.998 9.87032 18H9.86332Z" fill="white"/>
</mask>
<g mask="url(#mask0)">
</g>
</svg>
