<svg width="24" height="24" viewBox="0 0 24 24" fill="none" xmlns="http://www.w3.org/2000/svg">
<path fill-rule="evenodd" clip-rule="evenodd" d="M16.9513 5.37306L21.7793 11.3731C22.0783 11.7441 22.0733 12.2741 21.7683 12.6411L16.7683 18.6411C16.5703 18.8781 16.2863 19.0001 15.9993 19.0001C15.7733 19.0001 15.5473 18.9241 15.3593 18.7691C14.9353 18.4151 14.8783 17.7841 15.2313 17.3591L19.7083 11.9891L15.3923 6.62706C15.0473 6.19606 15.1143 5.56706 15.5453 5.22106C15.9753 4.87306 16.6043 4.94306 16.9513 5.37306ZM7.23161 5.35946C7.58461 4.93546 8.21361 4.87846 8.64061 5.23146C9.06461 5.58546 9.12161 6.21546 8.76861 6.64046L4.29161 12.0105L8.60761 17.3735C8.95261 17.8035 8.88561 18.4325 8.45461 18.7795C8.27061 18.9275 8.04861 19.0005 7.82861 19.0005C7.53661 19.0005 7.24661 18.8725 7.04861 18.6275L2.22061 12.6275C1.92161 12.2555 1.92661 11.7255 2.23161 11.3595L7.23161 5.35946Z" fill="#18203A"/>
<mask id="mask0" mask-type="alpha" maskUnits="userSpaceOnUse" x="1" y="4" width="22" height="16">
<path fill-rule="evenodd" clip-rule="evenodd" d="M16.9513 5.37306L21.7793 11.3731C22.0783 11.7441 22.0733 12.2741 21.7683 12.6411L16.7683 18.6411C16.5703 18.8781 16.2863 19.0001 15.9993 19.0001C15.7733 19.0001 15.5473 18.9241 15.3593 18.7691C14.9353 18.4151 14.8783 17.7841 15.2313 17.3591L19.7083 11.9891L15.3923 6.62706C15.0473 6.19606 15.1143 5.56706 15.5453 5.22106C15.9753 4.87306 16.6043 4.94306 16.9513 5.37306ZM7.23161 5.35946C7.58461 4.93546 8.21361 4.87846 8.64061 5.23146C9.06461 5.58546 9.12161 6.21546 8.76861 6.64046L4.29161 12.0105L8.60761 17.3735C8.95261 17.8035 8.88561 18.4325 8.45461 18.7795C8.27061 18.9275 8.04861 19.0005 7.82861 19.0005C7.53661 19.0005 7.24661 18.8725 7.04861 18.6275L2.22061 12.6275C1.92161 12.2555 1.92661 11.7255 2.23161 11.3595L7.23161 5.35946Z" fill="white"/>
</mask>
<g mask="url(#mask0)">
</g>
</svg>
