<svg width="24" height="24" viewBox="0 0 24 24" fill="none" xmlns="http://www.w3.org/2000/svg">
<path fill-rule="evenodd" clip-rule="evenodd" d="M21.7793 11.3731L16.9513 5.37306C16.6033 4.94306 15.9743 4.87306 15.5453 5.22106C15.1143 5.56706 15.0473 6.19606 15.3923 6.62706L19.7083 11.9891L15.2313 17.3591C14.8783 17.7841 14.9353 18.4151 15.3593 18.7691C15.5473 18.9241 15.7733 19.0001 15.9993 19.0001C16.2863 19.0001 16.5703 18.8781 16.7683 18.6411L21.7683 12.6411C22.0733 12.2741 22.0783 11.7441 21.7793 11.3731ZM4.29201 12.0108L8.76901 6.64076C9.12201 6.21576 9.06401 5.58476 8.64101 5.23176C8.21501 4.87876 7.58601 4.93576 7.23101 5.35976L2.23101 11.3598C1.92701 11.7258 1.92201 12.2558 2.22101 12.6268L7.04901 18.6268C7.24701 18.8718 7.53601 18.9998 7.82901 18.9998C8.04901 18.9998 8.27101 18.9278 8.45501 18.7798C8.88601 18.4328 8.95301 17.8038 8.60701 17.3728L4.29201 12.0108ZM14.3057 11.3843C14.7017 11.0003 15.3367 11.0133 15.7197 11.4093C16.1027 11.8063 16.0917 12.4393 15.6947 12.8233L12.6947 15.7203C12.5007 15.9063 12.2497 16.0003 11.9997 16.0003C11.7437 16.0003 11.4887 15.9023 11.2927 15.7073L8.29271 12.7073C7.90271 12.3163 7.90271 11.6833 8.29271 11.2933C8.68371 10.9023 9.31671 10.9023 9.70671 11.2933L10.9997 12.5853V8.00026C10.9997 7.44726 11.4477 7.00026 11.9997 7.00026C12.5527 7.00026 12.9997 7.44726 12.9997 8.00026V12.6443L14.3057 11.3843Z" fill="#18203A"/>
<mask id="mask0" mask-type="alpha" maskUnits="userSpaceOnUse" x="1" y="4" width="22" height="15">
<path fill-rule="evenodd" clip-rule="evenodd" d="M21.7793 11.3731L16.9513 5.37306C16.6033 4.94306 15.9743 4.87306 15.5453 5.22106C15.1143 5.56706 15.0473 6.19606 15.3923 6.62706L19.7083 11.9891L15.2313 17.3591C14.8783 17.7841 14.9353 18.4151 15.3593 18.7691C15.5473 18.9241 15.7733 19.0001 15.9993 19.0001C16.2863 19.0001 16.5703 18.8781 16.7683 18.6411L21.7683 12.6411C22.0733 12.2741 22.0783 11.7441 21.7793 11.3731ZM4.29201 12.0108L8.76901 6.64076C9.12201 6.21576 9.06401 5.58476 8.64101 5.23176C8.21501 4.87876 7.58601 4.93576 7.23101 5.35976L2.23101 11.3598C1.92701 11.7258 1.92201 12.2558 2.22101 12.6268L7.04901 18.6268C7.24701 18.8718 7.53601 18.9998 7.82901 18.9998C8.04901 18.9998 8.27101 18.9278 8.45501 18.7798C8.88601 18.4328 8.95301 17.8038 8.60701 17.3728L4.29201 12.0108ZM14.3057 11.3843C14.7017 11.0003 15.3367 11.0133 15.7197 11.4093C16.1027 11.8063 16.0917 12.4393 15.6947 12.8233L12.6947 15.7203C12.5007 15.9063 12.2497 16.0003 11.9997 16.0003C11.7437 16.0003 11.4887 15.9023 11.2927 15.7073L8.29271 12.7073C7.90271 12.3163 7.90271 11.6833 8.29271 11.2933C8.68371 10.9023 9.31671 10.9023 9.70671 11.2933L10.9997 12.5853V8.00026C10.9997 7.44726 11.4477 7.00026 11.9997 7.00026C12.5527 7.00026 12.9997 7.44726 12.9997 8.00026V12.6443L14.3057 11.3843Z" fill="white"/>
</mask>
<g mask="url(#mask0)">
</g>
</svg>
