<svg width="24" height="24" viewBox="0 0 24 24" fill="none" xmlns="http://www.w3.org/2000/svg">
<path fill-rule="evenodd" clip-rule="evenodd" d="M16.0557 10.6417L13.3597 7.94565L15.2717 6.03465L17.9657 8.72865L16.0557 10.6417ZM9.07871 17.6247L6.10271 17.8957L6.36671 14.9397L11.9457 9.35965L14.6417 12.0557L9.07871 17.6247ZM19.4027 7.33665L16.6627 4.59765C15.8957 3.82965 14.6767 3.80165 13.9487 4.52965L11.9457 6.53165L10.7067 5.29265C10.3167 4.90265 9.68371 4.90265 9.29271 5.29265C8.90271 5.68365 8.90271 6.31665 9.29271 6.70665L10.5317 7.94565L4.95171 13.5257C4.62671 13.8507 4.42471 14.2827 4.38271 14.7397L4.00371 18.9097C3.97771 19.2047 4.08271 19.4967 4.29271 19.7067C4.48171 19.8957 4.73671 19.9997 4.99971 19.9997C5.03071 19.9997 5.06071 19.9987 5.09071 19.9957L9.26071 19.6177C9.71771 19.5757 10.1497 19.3727 10.4747 19.0477L16.0547 13.4687L17.2927 14.7067C17.4887 14.9027 17.7437 14.9997 17.9997 14.9997C18.2557 14.9997 18.5117 14.9027 18.7067 14.7067C19.0977 14.3167 19.0977 13.6837 18.7067 13.2927L17.4687 12.0547L19.4707 10.0517C20.2007 9.32265 20.1697 8.10465 19.4027 7.33665Z" fill="#18203A"/>
<mask id="mask0" mask-type="alpha" maskUnits="userSpaceOnUse" x="3" y="4" width="17" height="16">
<path fill-rule="evenodd" clip-rule="evenodd" d="M16.0557 10.6417L13.3597 7.94565L15.2717 6.03465L17.9657 8.72865L16.0557 10.6417ZM9.07871 17.6247L6.10271 17.8957L6.36671 14.9397L11.9457 9.35965L14.6417 12.0557L9.07871 17.6247ZM19.4027 7.33665L16.6627 4.59765C15.8957 3.82965 14.6767 3.80165 13.9487 4.52965L11.9457 6.53165L10.7067 5.29265C10.3167 4.90265 9.68371 4.90265 9.29271 5.29265C8.90271 5.68365 8.90271 6.31665 9.29271 6.70665L10.5317 7.94565L4.95171 13.5257C4.62671 13.8507 4.42471 14.2827 4.38271 14.7397L4.00371 18.9097C3.97771 19.2047 4.08271 19.4967 4.29271 19.7067C4.48171 19.8957 4.73671 19.9997 4.99971 19.9997C5.03071 19.9997 5.06071 19.9987 5.09071 19.9957L9.26071 19.6177C9.71771 19.5757 10.1497 19.3727 10.4747 19.0477L16.0547 13.4687L17.2927 14.7067C17.4887 14.9027 17.7437 14.9997 17.9997 14.9997C18.2557 14.9997 18.5117 14.9027 18.7067 14.7067C19.0977 14.3167 19.0977 13.6837 18.7067 13.2927L17.4687 12.0547L19.4707 10.0517C20.2007 9.32265 20.1697 8.10465 19.4027 7.33665Z" fill="white"/>
</mask>
<g mask="url(#mask0)">
</g>
</svg>
