<svg width="24" height="24" viewBox="0 0 24 24" fill="none" xmlns="http://www.w3.org/2000/svg">
<path fill-rule="evenodd" clip-rule="evenodd" d="M17.9932 7.04879C17.9932 6.49979 17.5492 6.05279 16.9992 6.04979L9.00619 5.99979H9.00019C8.45019 5.99979 8.00419 6.44379 8.00019 6.99379C7.99619 7.54579 8.44119 7.99679 8.99419 7.99979L14.5522 8.03479L6.29319 16.2928C5.90219 16.6838 5.90219 17.3168 6.29319 17.7068C6.48819 17.9028 6.74419 17.9998 7.00019 17.9998C7.25619 17.9998 7.51219 17.9028 7.70719 17.7068L15.9952 9.41879L16.0002 15.0008C16.0002 15.5528 16.4482 15.9998 17.0002 15.9998H17.0012C17.5532 15.9998 18.0002 15.5508 18.0002 14.9988L17.9932 7.04879Z" fill="#18203A"/>
<mask id="mask0" mask-type="alpha" maskUnits="userSpaceOnUse" x="6" y="5" width="13" height="13">
<path fill-rule="evenodd" clip-rule="evenodd" d="M17.9932 7.04879C17.9932 6.49979 17.5492 6.05279 16.9992 6.04979L9.00619 5.99979H9.00019C8.45019 5.99979 8.00419 6.44379 8.00019 6.99379C7.99619 7.54579 8.44119 7.99679 8.99419 7.99979L14.5522 8.03479L6.29319 16.2928C5.90219 16.6838 5.90219 17.3168 6.29319 17.7068C6.48819 17.9028 6.74419 17.9998 7.00019 17.9998C7.25619 17.9998 7.51219 17.9028 7.70719 17.7068L15.9952 9.41879L16.0002 15.0008C16.0002 15.5528 16.4482 15.9998 17.0002 15.9998H17.0012C17.5532 15.9998 18.0002 15.5508 18.0002 14.9988L17.9932 7.04879Z" fill="white"/>
</mask>
<g mask="url(#mask0)">
</g>
</svg>
