<svg width="24" height="24" viewBox="0 0 24 24" fill="none" xmlns="http://www.w3.org/2000/svg">
<path fill-rule="evenodd" clip-rule="evenodd" d="M21.8676 12.4976C21.4526 13.2206 20.4766 14.7386 18.9546 16.1266L17.5436 14.7156C18.6036 13.7646 19.3706 12.7186 19.8266 12.0046C18.8946 10.5856 16.0716 6.89362 11.7806 7.00262C11.1806 7.01762 10.6176 7.11162 10.0816 7.25362L8.5016 5.67362C9.4736 5.28962 10.5446 5.03362 11.7296 5.00362C17.7046 4.81662 21.2296 10.3906 21.8676 11.5026C22.0436 11.8106 22.0436 12.1896 21.8676 12.4976ZM13.9176 16.7466L15.4976 18.3266C14.5266 18.7106 13.4546 18.9666 12.2706 18.9966C12.1886 18.9986 12.1066 18.9996 12.0246 18.9996C6.1616 18.9996 2.7616 13.5946 2.1326 12.4976C1.9556 12.1896 1.9556 11.8106 2.1326 11.5026C2.5466 10.7796 3.5226 9.26162 5.0446 7.87262L6.4556 9.28462C5.3956 10.2356 4.6296 11.2816 4.1726 11.9956C5.1046 13.4146 7.9146 17.0976 12.2196 16.9976C12.8196 16.9826 13.3826 16.8886 13.9176 16.7466ZM11.9996 13.4996C11.1726 13.4996 10.4996 12.8276 10.4996 11.9996C10.4996 11.9746 10.5106 11.9516 10.5116 11.9256L12.0746 13.4886C12.0486 13.4896 12.0256 13.4996 11.9996 13.4996ZM4.7066 3.29262C4.3166 2.90262 3.6836 2.90262 3.2926 3.29262C2.9026 3.68362 2.9026 4.31662 3.2926 4.70662L8.9236 10.3376C8.6466 10.8456 8.4996 11.4106 8.4996 11.9996C8.4996 13.9296 10.0706 15.4996 11.9996 15.4996C12.5896 15.4996 13.1546 15.3526 13.6626 15.0766L19.2926 20.7066C19.4886 20.9026 19.7436 20.9996 19.9996 20.9996C20.2556 20.9996 20.5116 20.9026 20.7066 20.7066C21.0976 20.3166 21.0976 19.6836 20.7066 19.2926L4.7066 3.29262Z" fill="#18203A"/>
</svg>
