<svg width="24" height="24" viewBox="0 0 24 24" fill="none" xmlns="http://www.w3.org/2000/svg">
<path fill-rule="evenodd" clip-rule="evenodd" d="M19.364 5.635C20.1861 6.45501 20.8409 7.42705 21.292 8.497C21.7617 9.60502 22.0025 10.7966 22 12C22.0022 13.7937 21.4665 15.5469 20.462 17.033C19.486 18.4803 18.1106 19.6128 16.503 20.293C15.3939 20.7592 14.2031 20.9995 13 21C10.6131 21.0014 8.32366 20.053 6.637 18.364L8.051 16.95C8.36872 17.2673 8.71595 17.5536 9.088 17.805C9.84447 18.3168 10.6943 18.6746 11.589 18.858C12.5206 19.0465 13.4804 19.0465 14.412 18.858C14.862 18.7655 15.3018 18.6289 15.725 18.45C16.5558 18.0966 17.3112 17.587 17.95 16.949C18.267 16.633 18.554 16.284 18.804 15.913C19.3168 15.1563 19.675 14.3056 19.858 13.41C20.0466 12.4781 20.0466 11.5179 19.858 10.586C19.0771 6.7997 15.3758 4.36243 11.589 5.141C10.6941 5.3264 9.84394 5.68441 9.086 6.195C8.34095 6.69952 7.69912 7.34169 7.195 8.087C6.41346 9.24207 5.99712 10.6054 6 12L6.001 12.025H8L5 16L2 12.025H4.001L4 12C3.99832 10.7963 4.23911 9.60461 4.708 8.496C5.16133 7.42786 5.81589 6.45689 6.636 5.636C7.87947 4.389 9.46267 3.53584 11.188 3.183C12.3844 2.93949 13.6176 2.93949 14.814 3.183C16.5377 3.5381 18.1196 4.39057 19.364 5.635ZM12 13V8H14V11H17V13H12Z" fill="#18203A"/>
</svg>
