<svg width="24" height="24" viewBox="0 0 24 24" fill="none" xmlns="http://www.w3.org/2000/svg">
<path fill-rule="evenodd" clip-rule="evenodd" d="M9.00003 16H7.21003C5.10403 16 3.20403 14.465 3.01703 12.366C2.80403 9.996 4.67303 8 7.00003 8H9.00003C9.55203 8 10 7.553 10 7C10 6.447 9.55203 6 9.00003 6H7.20903C4.16003 6 1.43903 8.187 1.05103 11.211C0.582029 14.869 3.43203 18 7.00003 18H9.00003C9.55203 18 10 17.553 10 17C10 16.447 9.55203 16 9.00003 16ZM8.00003 12C8.00003 12.553 8.44803 13 9.00003 13H15C15.552 13 16 12.553 16 12C16 11.447 15.552 11 15 11H9.00003C8.44803 11 8.00003 11.447 8.00003 12ZM16.7591 6.0002C19.8261 6.0002 22.5781 8.1972 22.9531 11.2422C23.4021 14.8882 20.5581 18.0002 17.0001 18.0002H15.0001C14.4481 18.0002 14.0001 17.5532 14.0001 17.0002C14.0001 16.4472 14.4481 16.0002 15.0001 16.0002H17.0001C19.3271 16.0002 21.1961 14.0042 20.9831 11.6342C20.7961 9.5352 18.8961 8.0002 16.7891 8.0002H15.0001C14.4481 8.0002 14.0001 7.5532 14.0001 7.0002C14.0001 6.4472 14.4431 6.0002 15.2491 6.0002H16.7591Z" fill="#C5CEE0"/>
<mask id="mask0" mask-type="alpha" maskUnits="userSpaceOnUse" x="1" y="6" width="22" height="13">
<path fill-rule="evenodd" clip-rule="evenodd" d="M9.00003 16H7.21003C5.10403 16 3.20403 14.465 3.01703 12.366C2.80403 9.996 4.67303 8 7.00003 8H9.00003C9.55203 8 10 7.553 10 7C10 6.447 9.55203 6 9.00003 6H7.20903C4.16003 6 1.43903 8.187 1.05103 11.211C0.582029 14.869 3.43203 18 7.00003 18H9.00003C9.55203 18 10 17.553 10 17C10 16.447 9.55203 16 9.00003 16ZM8.00003 12C8.00003 12.553 8.44803 13 9.00003 13H15C15.552 13 16 12.553 16 12C16 11.447 15.552 11 15 11H9.00003C8.44803 11 8.00003 11.447 8.00003 12ZM16.7591 6.0002C19.8261 6.0002 22.5781 8.1972 22.9531 11.2422C23.4021 14.8882 20.5581 18.0002 17.0001 18.0002H15.0001C14.4481 18.0002 14.0001 17.5532 14.0001 17.0002C14.0001 16.4472 14.4481 16.0002 15.0001 16.0002H17.0001C19.3271 16.0002 21.1961 14.0042 20.9831 11.6342C20.7961 9.5352 18.8961 8.0002 16.7891 8.0002H15.0001C14.4481 8.0002 14.0001 7.5532 14.0001 7.0002C14.0001 6.4472 14.4431 6.0002 15.2491 6.0002H16.7591Z" fill="white"/>
</mask>
<g mask="url(#mask0)">
<path fill-rule="evenodd" clip-rule="evenodd" d="M16.2531 15.8585C17.1197 17.1754 14.57 17.919 15.3051 19.2011C16.0401 20.4833 23.5012 20.3928 23.7506 16.1468C24 11.9008 22.9855 11.3363 20.6247 12.0002C18.2639 12.6641 15.3865 14.5415 16.2531 15.8585Z" fill="white"/>
</g>
<path fill-rule="evenodd" clip-rule="evenodd" d="M21.3046 16.1085L22.7813 14.6319C23.1723 14.2408 23.1716 13.608 22.7813 13.2177C22.3909 12.8273 21.7581 12.8266 21.367 13.2177L19.8904 14.6943L18.4982 13.3021C18.1079 12.9118 17.475 12.9111 17.084 13.3021C16.693 13.6931 16.6937 14.326 17.084 14.7163L18.4762 16.1085L17.1192 17.4655C16.7282 17.8565 16.7289 18.4894 17.1192 18.8797C17.5095 19.27 18.1424 19.2707 18.5334 18.8797L19.8904 17.5227L21.1927 18.825C21.583 19.2153 22.2159 19.216 22.6069 18.825C22.9979 18.4339 22.9972 17.8011 22.6069 17.4107L21.3046 16.1085Z" fill="#C5CEE0"/>
<mask id="mask1" mask-type="alpha" maskUnits="userSpaceOnUse" x="16" y="12" width="8" height="8">
<path fill-rule="evenodd" clip-rule="evenodd" d="M21.3046 16.1085L22.7813 14.6319C23.1723 14.2408 23.1716 13.608 22.7813 13.2177C22.3909 12.8273 21.7581 12.8266 21.367 13.2177L19.8904 14.6943L18.4982 13.3021C18.1079 12.9118 17.475 12.9111 17.084 13.3021C16.693 13.6931 16.6937 14.326 17.084 14.7163L18.4762 16.1085L17.1192 17.4655C16.7282 17.8565 16.7289 18.4894 17.1192 18.8797C17.5095 19.27 18.1424 19.2707 18.5334 18.8797L19.8904 17.5227L21.1927 18.825C21.583 19.2153 22.2159 19.216 22.6069 18.825C22.9979 18.4339 22.9972 17.8011 22.6069 17.4107L21.3046 16.1085Z" fill="white"/>
</mask>
<g mask="url(#mask1)">
</g>
</svg>
