<svg width="24" height="24" viewBox="0 0 24 24" fill="none" xmlns="http://www.w3.org/2000/svg">
<path fill-rule="evenodd" clip-rule="evenodd" d="M3.948 9H20.051C20.573 9 21 9.427 21 9.949V10.051C21 10.573 20.573 11 20.051 11H3.948C3.426 11 3 10.573 3 10.051V9.949C3 9.427 3.426 9 3.948 9ZM3.948 14H20.051C20.573 14 21 14.427 21 14.949V15.051C21 15.573 20.573 16 20.051 16H3.948C3.426 16 3 15.573 3 15.051V14.949C3 14.427 3.426 14 3.948 14Z" fill="#18203A"/>
<mask id="mask0" mask-type="alpha" maskUnits="userSpaceOnUse" x="3" y="9" width="18" height="7">
<path fill-rule="evenodd" clip-rule="evenodd" d="M3.948 9H20.051C20.573 9 21 9.427 21 9.949V10.051C21 10.573 20.573 11 20.051 11H3.948C3.426 11 3 10.573 3 10.051V9.949C3 9.427 3.426 9 3.948 9ZM3.948 14H20.051C20.573 14 21 14.427 21 14.949V15.051C21 15.573 20.573 16 20.051 16H3.948C3.426 16 3 15.573 3 15.051V14.949C3 14.427 3.426 14 3.948 14Z" fill="white"/>
</mask>
<g mask="url(#mask0)">
</g>
</svg>
