<svg width="24" height="24" viewBox="0 0 24 24" fill="none" xmlns="http://www.w3.org/2000/svg">
<path fill-rule="evenodd" clip-rule="evenodd" d="M21.71 11.31L18.71 8.31002C18.3179 7.91789 17.6821 7.91789 17.29 8.31002C16.8979 8.70214 16.8979 9.33789 17.29 9.73002L18.58 11H13V5.41002L14.29 6.71002C14.4787 6.8972 14.7342 7.00155 15 7.00002C15.2658 7.00155 15.5213 6.8972 15.71 6.71002C15.8993 6.52225 16.0058 6.26665 16.0058 6.00002C16.0058 5.73338 15.8993 5.47778 15.71 5.29002L12.71 2.29002C12.5213 2.10283 12.2658 1.99848 12 2.00002C11.7377 2.00112 11.4863 2.10527 11.3 2.29002L8.30002 5.29002C8.04636 5.54189 7.94634 5.90995 8.03764 6.25556C8.12894 6.60118 8.39768 6.87183 8.74264 6.96556C9.0876 7.0593 9.45636 6.96189 9.71002 6.71002L11 5.42002V11H5.41002L6.71002 9.71002C7.10214 9.31789 7.10214 8.68214 6.71002 8.29002C6.31789 7.89789 5.68214 7.89789 5.29002 8.29002L2.29002 11.29C2.10283 11.4787 1.99848 11.7342 2.00002 12C1.99848 12.2658 2.10283 12.5213 2.29002 12.71L5.29002 15.71C5.47874 15.8972 5.73421 16.0016 6.00002 16C6.26582 16.0016 6.5213 15.8972 6.71002 15.71C6.89933 15.5223 7.00582 15.2667 7.00582 15C7.00582 14.7334 6.89933 14.4778 6.71002 14.29L5.42002 13H11V18.59L9.71002 17.29C9.45636 17.0364 9.08664 16.9373 8.74014 17.0301C8.39363 17.123 8.12298 17.3936 8.03014 17.7401C7.93729 18.0866 8.03636 18.4564 8.29002 18.71L11.29 21.71C11.4787 21.8972 11.7342 22.0016 12 22C12.2624 21.9989 12.5138 21.8948 12.7 21.71L15.7 18.71C16.0921 18.3179 16.0921 17.6821 15.7 17.29C15.3079 16.8979 14.6721 16.8979 14.28 17.29L13 18.58V13H18.59L17.29 14.29C17.1007 14.4778 16.9942 14.7334 16.9942 15C16.9942 15.2667 17.1007 15.5223 17.29 15.71C17.4787 15.8972 17.7342 16.0016 18 16C18.2658 16.0016 18.5213 15.8972 18.71 15.71L21.71 12.71C21.8972 12.5213 22.0016 12.2658 22 12C21.9963 11.7411 21.8924 11.4938 21.71 11.31Z" fill="#18203A"/>
</svg>
