<svg width="24" height="24" viewBox="0 0 24 24" fill="none" xmlns="http://www.w3.org/2000/svg">
<path fill-rule="evenodd" clip-rule="evenodd" d="M6.69821 14.6299C5.01221 12.3889 4.00021 9.61288 4.00021 6.59988C4.00021 5.16588 5.16621 3.99988 6.59921 3.99988C6.70921 3.99988 6.81721 4.00688 6.92721 4.02188L7.98821 8.64188L7.81801 8.73068L7.81762 8.73088C7.69271 8.79599 7.56492 8.86261 7.44321 8.92688C6.57221 9.38188 5.94321 9.71088 6.26521 10.5139C6.64121 11.5839 7.18621 12.5759 7.84421 13.4839L9.27321 12.0549C8.97121 11.6089 8.70121 11.1389 8.47421 10.6449C9.71421 9.99488 9.71821 9.99188 9.85421 9.84988C10.0882 9.60688 10.1822 9.26188 10.1072 8.93388L8.73821 2.96988C8.66121 2.63388 8.41721 2.36088 8.09221 2.24888C7.85421 2.16588 7.60821 2.10488 7.36521 2.06588C7.11621 2.02288 6.86021 1.99988 6.59921 1.99988C4.06321 1.99988 2.00021 4.06388 2.00021 6.59988C2.00021 10.1659 3.22921 13.4429 5.27121 16.0569L6.69821 14.6299ZM19.7393 4.26068C19.3923 3.91268 18.8303 3.91268 18.4823 4.26068L4.26031 18.4827C4.08731 18.6567 4.00031 18.8837 4.00031 19.1117C4.00031 19.3387 4.08731 19.5667 4.26031 19.7397C4.60731 20.0867 5.17031 20.0867 5.51731 19.7397L19.7393 5.51768C20.0873 5.16968 20.0873 4.60768 19.7393 4.26068ZM21.7505 15.9087C21.8325 16.1437 21.8955 16.3887 21.9355 16.6387C21.9775 16.8867 21.9995 17.1417 21.9995 17.4007C21.9995 19.9367 19.9365 21.9997 17.4005 21.9997C13.8335 21.9997 10.5565 20.7707 7.94351 18.7287L9.37051 17.3017C11.6115 18.9877 14.3865 19.9997 17.4005 19.9997C18.8335 19.9997 19.9995 18.8337 19.9995 17.4007C19.9995 17.2887 19.9935 17.1797 19.9785 17.0727L15.3585 16.0117L15.0735 16.5567L15.0688 16.5656C14.6163 17.431 14.2886 18.0575 13.4465 17.7197C12.3935 17.3507 11.4135 16.8107 10.5125 16.1587L11.9425 14.7287C12.3895 15.0327 12.8605 15.3027 13.3545 15.5277C14.0036 14.2864 14.0075 14.2827 14.1499 14.1463L14.1505 14.1457C14.3935 13.9117 14.7375 13.8197 15.0665 13.8927L21.0305 15.2617C21.3665 15.3387 21.6385 15.5827 21.7505 15.9087Z" fill="#18203A"/>
<mask id="mask0" mask-type="alpha" maskUnits="userSpaceOnUse" x="2" y="1" width="20" height="21">
<path fill-rule="evenodd" clip-rule="evenodd" d="M6.69821 14.6299C5.01221 12.3889 4.00021 9.61288 4.00021 6.59988C4.00021 5.16588 5.16621 3.99988 6.59921 3.99988C6.70921 3.99988 6.81721 4.00688 6.92721 4.02188L7.98821 8.64188L7.81801 8.73068L7.81762 8.73088C7.69271 8.79599 7.56492 8.86261 7.44321 8.92688C6.57221 9.38188 5.94321 9.71088 6.26521 10.5139C6.64121 11.5839 7.18621 12.5759 7.84421 13.4839L9.27321 12.0549C8.97121 11.6089 8.70121 11.1389 8.47421 10.6449C9.71421 9.99488 9.71821 9.99188 9.85421 9.84988C10.0882 9.60688 10.1822 9.26188 10.1072 8.93388L8.73821 2.96988C8.66121 2.63388 8.41721 2.36088 8.09221 2.24888C7.85421 2.16588 7.60821 2.10488 7.36521 2.06588C7.11621 2.02288 6.86021 1.99988 6.59921 1.99988C4.06321 1.99988 2.00021 4.06388 2.00021 6.59988C2.00021 10.1659 3.22921 13.4429 5.27121 16.0569L6.69821 14.6299ZM19.7393 4.26068C19.3923 3.91268 18.8303 3.91268 18.4823 4.26068L4.26031 18.4827C4.08731 18.6567 4.00031 18.8837 4.00031 19.1117C4.00031 19.3387 4.08731 19.5667 4.26031 19.7397C4.60731 20.0867 5.17031 20.0867 5.51731 19.7397L19.7393 5.51768C20.0873 5.16968 20.0873 4.60768 19.7393 4.26068ZM21.7505 15.9087C21.8325 16.1437 21.8955 16.3887 21.9355 16.6387C21.9775 16.8867 21.9995 17.1417 21.9995 17.4007C21.9995 19.9367 19.9365 21.9997 17.4005 21.9997C13.8335 21.9997 10.5565 20.7707 7.94351 18.7287L9.37051 17.3017C11.6115 18.9877 14.3865 19.9997 17.4005 19.9997C18.8335 19.9997 19.9995 18.8337 19.9995 17.4007C19.9995 17.2887 19.9935 17.1797 19.9785 17.0727L15.3585 16.0117L15.0735 16.5567L15.0688 16.5656C14.6163 17.431 14.2886 18.0575 13.4465 17.7197C12.3935 17.3507 11.4135 16.8107 10.5125 16.1587L11.9425 14.7287C12.3895 15.0327 12.8605 15.3027 13.3545 15.5277C14.0036 14.2864 14.0075 14.2827 14.1499 14.1463L14.1505 14.1457C14.3935 13.9117 14.7375 13.8197 15.0665 13.8927L21.0305 15.2617C21.3665 15.3387 21.6385 15.5827 21.7505 15.9087Z" fill="white"/>
</mask>
<g mask="url(#mask0)">
</g>
</svg>
