<svg width="24" height="24" viewBox="0 0 24 24" fill="none" xmlns="http://www.w3.org/2000/svg">
<path fill-rule="evenodd" clip-rule="evenodd" d="M10.3203 12.0223C10.3203 12.2143 10.2643 12.4073 10.1543 12.5743L6.92325 17.4543L17.7863 12.0223L6.92325 6.59032L10.1543 11.4703C10.2643 11.6373 10.3203 11.8303 10.3203 12.0223ZM3.02225 20.0223C3.02225 19.8303 3.07725 19.6383 3.18825 19.4703L8.12125 12.0223L3.18825 4.57432C2.93925 4.19632 2.97325 3.69832 3.27325 3.35932C3.57425 3.02032 4.06425 2.92532 4.46925 3.12732L20.4693 11.1273C21.1473 11.4663 21.1473 12.5783 20.4693 12.9173L4.46925 20.9173C4.06425 21.1193 3.57425 21.0243 3.27325 20.6853C3.10725 20.4973 3.02225 20.2603 3.02225 20.0223Z" fill="#18203A"/>
<mask id="mask0" mask-type="alpha" maskUnits="userSpaceOnUse" x="3" y="3" width="18" height="19">
<path fill-rule="evenodd" clip-rule="evenodd" d="M10.3203 12.0223C10.3203 12.2143 10.2643 12.4073 10.1543 12.5743L6.92325 17.4543L17.7863 12.0223L6.92325 6.59032L10.1543 11.4703C10.2643 11.6373 10.3203 11.8303 10.3203 12.0223ZM3.02225 20.0223C3.02225 19.8303 3.07725 19.6383 3.18825 19.4703L8.12125 12.0223L3.18825 4.57432C2.93925 4.19632 2.97325 3.69832 3.27325 3.35932C3.57425 3.02032 4.06425 2.92532 4.46925 3.12732L20.4693 11.1273C21.1473 11.4663 21.1473 12.5783 20.4693 12.9173L4.46925 20.9173C4.06425 21.1193 3.57425 21.0243 3.27325 20.6853C3.10725 20.4973 3.02225 20.2603 3.02225 20.0223Z" fill="white"/>
</mask>
<g mask="url(#mask0)">
</g>
</svg>
