<svg width="24" height="24" viewBox="0 0 24 24" fill="none" xmlns="http://www.w3.org/2000/svg">
<path fill-rule="evenodd" clip-rule="evenodd" d="M13 7.14224C12.679 7.05924 12.347 7.00024 12 7.00024C11.653 7.00024 11.321 7.05924 11 7.14224V3.00024C11 2.44724 11.448 2.00024 12 2.00024C12.552 2.00024 13 2.44724 13 3.00024V7.14224ZM5.4995 18.0002C5.2715 18.0002 5.0435 17.9232 4.8555 17.7652C2.6915 15.9432 1.4995 13.5412 1.4995 11.0002C1.4995 8.45924 2.6915 6.05724 4.8555 4.23524C5.2775 3.87824 5.9085 3.93324 6.2655 4.35624C6.6205 4.77824 6.5665 5.40924 6.1445 5.76524C4.4385 7.20024 3.4995 9.06024 3.4995 11.0002C3.4995 12.9402 4.4385 14.8002 6.1445 16.2352C6.5665 16.5912 6.6205 17.2222 6.2655 17.6442C6.0675 17.8792 5.7845 18.0002 5.4995 18.0002ZM12 12.0002C11.449 12.0002 11 11.5522 11 11.0002C11 10.4482 11.449 10.0002 12 10.0002C12.551 10.0002 13 10.4482 13 11.0002C13 11.5522 12.551 12.0002 12 12.0002ZM12 15.0002C11.653 15.0002 11.321 14.9412 11 14.8582V20.0002C11 20.5532 11.448 21.0002 12 21.0002C12.552 21.0002 13 20.5532 13 20.0002V14.8582C12.679 14.9412 12.347 15.0002 12 15.0002ZM15.2345 15.6452C15.4335 15.8792 15.7155 16.0002 16.0005 16.0002C16.2285 16.0002 16.4565 15.9232 16.6445 15.7652C18.1635 14.4852 19.0005 12.7932 19.0005 11.0002C19.0005 9.20724 18.1635 7.51524 16.6445 6.23524C16.2225 5.87924 15.5905 5.93424 15.2345 6.35524C14.8795 6.77824 14.9335 7.40924 15.3555 7.76524C16.4165 8.65724 17.0005 9.80724 17.0005 11.0002C17.0005 12.1932 16.4165 13.3432 15.3555 14.2352C14.9335 14.5912 14.8795 15.2222 15.2345 15.6452ZM7.9995 16.0002C7.7715 16.0002 7.5435 15.9232 7.3555 15.7652C5.8365 14.4852 4.9995 12.7932 4.9995 11.0002C4.9995 9.20724 5.8365 7.51524 7.3555 6.23524C7.7775 5.87924 8.4085 5.93324 8.7655 6.35524C9.1205 6.77824 9.0665 7.40924 8.6445 7.76524C7.5835 8.65724 6.9995 9.80724 6.9995 11.0002C6.9995 12.1932 7.5835 13.3432 8.6445 14.2352C9.0665 14.5912 9.1205 15.2222 8.7655 15.6452C8.5675 15.8792 8.2845 16.0002 7.9995 16.0002ZM17.7345 17.6442C17.9325 17.8792 18.2155 18.0002 18.5005 18.0002C18.7285 18.0002 18.9565 17.9232 19.1445 17.7652C21.3085 15.9432 22.5005 13.5412 22.5005 11.0002C22.5005 8.45924 21.3085 6.05724 19.1445 4.23524C18.7215 3.87924 18.0905 3.93324 17.7345 4.35624C17.3795 4.77824 17.4335 5.40924 17.8555 5.76524C19.5615 7.20024 20.5005 9.06024 20.5005 11.0002C20.5005 12.9402 19.5615 14.8002 17.8555 16.2352C17.4335 16.5912 17.3795 17.2222 17.7345 17.6442Z" fill="#18203A"/>
<mask id="mask0" mask-type="alpha" maskUnits="userSpaceOnUse" x="1" y="2" width="22" height="20">
<path fill-rule="evenodd" clip-rule="evenodd" d="M13 7.14224C12.679 7.05924 12.347 7.00024 12 7.00024C11.653 7.00024 11.321 7.05924 11 7.14224V3.00024C11 2.44724 11.448 2.00024 12 2.00024C12.552 2.00024 13 2.44724 13 3.00024V7.14224ZM5.4995 18.0002C5.2715 18.0002 5.0435 17.9232 4.8555 17.7652C2.6915 15.9432 1.4995 13.5412 1.4995 11.0002C1.4995 8.45924 2.6915 6.05724 4.8555 4.23524C5.2775 3.87824 5.9085 3.93324 6.2655 4.35624C6.6205 4.77824 6.5665 5.40924 6.1445 5.76524C4.4385 7.20024 3.4995 9.06024 3.4995 11.0002C3.4995 12.9402 4.4385 14.8002 6.1445 16.2352C6.5665 16.5912 6.6205 17.2222 6.2655 17.6442C6.0675 17.8792 5.7845 18.0002 5.4995 18.0002ZM12 12.0002C11.449 12.0002 11 11.5522 11 11.0002C11 10.4482 11.449 10.0002 12 10.0002C12.551 10.0002 13 10.4482 13 11.0002C13 11.5522 12.551 12.0002 12 12.0002ZM12 15.0002C11.653 15.0002 11.321 14.9412 11 14.8582V20.0002C11 20.5532 11.448 21.0002 12 21.0002C12.552 21.0002 13 20.5532 13 20.0002V14.8582C12.679 14.9412 12.347 15.0002 12 15.0002ZM15.2345 15.6452C15.4335 15.8792 15.7155 16.0002 16.0005 16.0002C16.2285 16.0002 16.4565 15.9232 16.6445 15.7652C18.1635 14.4852 19.0005 12.7932 19.0005 11.0002C19.0005 9.20724 18.1635 7.51524 16.6445 6.23524C16.2225 5.87924 15.5905 5.93424 15.2345 6.35524C14.8795 6.77824 14.9335 7.40924 15.3555 7.76524C16.4165 8.65724 17.0005 9.80724 17.0005 11.0002C17.0005 12.1932 16.4165 13.3432 15.3555 14.2352C14.9335 14.5912 14.8795 15.2222 15.2345 15.6452ZM7.9995 16.0002C7.7715 16.0002 7.5435 15.9232 7.3555 15.7652C5.8365 14.4852 4.9995 12.7932 4.9995 11.0002C4.9995 9.20724 5.8365 7.51524 7.3555 6.23524C7.7775 5.87924 8.4085 5.93324 8.7655 6.35524C9.1205 6.77824 9.0665 7.40924 8.6445 7.76524C7.5835 8.65724 6.9995 9.80724 6.9995 11.0002C6.9995 12.1932 7.5835 13.3432 8.6445 14.2352C9.0665 14.5912 9.1205 15.2222 8.7655 15.6452C8.5675 15.8792 8.2845 16.0002 7.9995 16.0002ZM17.7345 17.6442C17.9325 17.8792 18.2155 18.0002 18.5005 18.0002C18.7285 18.0002 18.9565 17.9232 19.1445 17.7652C21.3085 15.9432 22.5005 13.5412 22.5005 11.0002C22.5005 8.45924 21.3085 6.05724 19.1445 4.23524C18.7215 3.87924 18.0905 3.93324 17.7345 4.35624C17.3795 4.77824 17.4335 5.40924 17.8555 5.76524C19.5615 7.20024 20.5005 9.06024 20.5005 11.0002C20.5005 12.9402 19.5615 14.8002 17.8555 16.2352C17.4335 16.5912 17.3795 17.2222 17.7345 17.6442Z" fill="white"/>
</mask>
<g mask="url(#mask0)">
</g>
</svg>
