<svg width="24" height="24" viewBox="0 0 24 24" fill="none" xmlns="http://www.w3.org/2000/svg">
<path fill-rule="evenodd" clip-rule="evenodd" d="M22.5 22.8229H1.5V1.82288H22.5V22.8229ZM20.99 20.9884H3.33333V3.33288H20.99V20.9884ZM7.13556 6.41654H7.10667L6.26778 8.97654H7.97111L7.13556 6.41654ZM8.22556 9.80432H6.01889L5.50667 11.3532H4.40111L6.52889 5.35654H7.73778L9.86667 11.3532H8.73556L8.22556 9.80432ZM19.9211 6.41732H11.2867V5.35732H19.9211V6.41732ZM11.2867 8.92621H19.9211V7.86621H11.2867V8.92621ZM19.9211 11.4373H11.2867V10.3773H19.9211V11.4373ZM4.40222 13.9473H19.9222V12.8862H4.40222V13.9473ZM19.9222 16.4573H4.40222V15.3973H19.9222V16.4573ZM4.40222 18.9673H10.5456V17.9073H4.40222V18.9673Z" fill="#18203A"/>
</svg>
